<svg width="25" height="24" viewBox="0 0 25 24" fill="none" xmlns="http://www.w3.org/2000/svg">
<path d="M17.3 20.28C16.32 21.23 15.25 21.08 14.22 20.63C13.13 20.17 12.13 20.15 10.98 20.63C9.54004 21.25 8.78004 21.07 7.92004 20.28C3.04004 15.25 3.76004 7.59 9.30004 7.31C10.65 7.38 11.59 8.05 12.38 8.11C13.56 7.87 14.69 7.18 15.95 7.27C17.46 7.39 18.6 7.99 19.35 9.07C16.23 10.94 16.97 15.05 19.83 16.2C19.26 17.7 18.52 19.19 17.29 20.29L17.3 20.28ZM12.28 7.25C12.13 5.02 13.94 3.18 16.02 3C16.31 5.58 13.68 7.5 12.28 7.25Z" fill="black"/>
</svg>
