<svg width="24" height="25" viewBox="0 0 24 25" fill="none" xmlns="http://www.w3.org/2000/svg">
    <path d="M21.9201 12.1C19.9001 7.41 16.1001 4.5 12.0001 4.5C7.90007 4.5 4.10007 7.41 2.08007 12.1C2.025 12.2262 1.99658 12.3623 1.99658 12.5C1.99658 12.6377 2.025 12.7738 2.08007 12.9C4.10007 17.59 7.90007 20.5 12.0001 20.5C16.1001 20.5 19.9001 17.59 21.9201 12.9C21.9751 12.7738 22.0036 12.6377 22.0036 12.5C22.0036 12.3623 21.9751 12.2262 21.9201 12.1ZM12.0001 18.5C8.83007 18.5 5.83007 16.21 4.10007 12.5C5.83007 8.79 8.83007 6.5 12.0001 6.5C15.1701 6.5 18.1701 8.79 19.9001 12.5C18.1701 16.21 15.1701 18.5 12.0001 18.5ZM12.0001 8.5C11.2089 8.5 10.4356 8.7346 9.77779 9.17412C9.11999 9.61365 8.6073 10.2384 8.30455 10.9693C8.0018 11.7002 7.92258 12.5044 8.07693 13.2804C8.23127 14.0563 8.61223 14.769 9.17164 15.3284C9.73105 15.8878 10.4438 16.2688 11.2197 16.4231C11.9956 16.5775 12.7999 16.4983 13.5308 16.1955C14.2617 15.8928 14.8864 15.3801 15.3259 14.7223C15.7655 14.0645 16.0001 13.2911 16.0001 12.5C16.0001 11.4391 15.5786 10.4217 14.8285 9.67157C14.0783 8.92143 13.0609 8.5 12.0001 8.5ZM12.0001 14.5C11.6045 14.5 11.2178 14.3827 10.8889 14.1629C10.56 13.9432 10.3037 13.6308 10.1523 13.2654C10.0009 12.8999 9.96133 12.4978 10.0385 12.1098C10.1157 11.7219 10.3061 11.3655 10.5859 11.0858C10.8656 10.8061 11.2219 10.6156 11.6099 10.5384C11.9978 10.4613 12.4 10.5009 12.7654 10.6522C13.1309 10.8036 13.4432 11.06 13.663 11.3889C13.8828 11.7178 14.0001 12.1044 14.0001 12.5C14.0001 13.0304 13.7894 13.5391 13.4143 13.9142C13.0392 14.2893 12.5305 14.5 12.0001 14.5Z" fill="#B4B4B4"/>
    </svg>
    