<svg width="19" height="16" viewBox="0 0 19 16" fill="none" xmlns="http://www.w3.org/2000/svg">
<path d="M1 4.4H18M1 2.7C1 2.24913 1.17911 1.81673 1.49792 1.49792C1.81673 1.17911 2.24913 1 2.7 1H16.3C16.7509 1 17.1833 1.17911 17.5021 1.49792C17.8209 1.81673 18 2.24913 18 2.7V12.9C18 13.3509 17.8209 13.7833 17.5021 14.1021C17.1833 14.4209 16.7509 14.6 16.3 14.6H2.7C2.24913 14.6 1.81673 14.4209 1.49792 14.1021C1.17911 13.7833 1 13.3509 1 12.9V2.7Z" stroke="#F3D523" stroke-width="2" stroke-linecap="round" stroke-linejoin="round"/>
<path d="M1 7.80029H6.95C6.95 8.65029 7.46 10.3503 9.5 10.3503C11.54 10.3503 12.05 8.65029 12.05 7.80029H18" stroke="#F3D523" stroke-width="2" stroke-linecap="round" stroke-linejoin="round"/>
</svg>
