<svg width="256" height="64" viewBox="0 0 256 64" fill="none" xmlns="http://www.w3.org/2000/svg">
<g clip-path="url(#clip0_2571_5577)">
<path d="M25.3617 11.4998C27.2521 11.8148 28.6699 12.4449 29.6151 13.3901C30.5603 14.3353 31.0329 15.5956 31.0329 17.1709V17.3284C31.0329 19.0612 30.5603 20.479 29.6151 21.4242C28.6699 22.3694 27.2521 23.157 25.5193 23.4721C23.7864 23.7872 21.581 24.1022 19.0605 24.1022H17.6427H0.629395V0H20.4783C22.9988 0 25.0467 0.472593 26.622 1.57531C28.1973 2.52049 28.8274 4.0958 28.8274 5.98617V6.1437C28.8274 7.56148 28.5124 8.6642 27.8822 9.60938C27.5672 10.397 26.622 11.0272 25.3617 11.4998ZM22.2111 6.93136C22.2111 6.1437 22.0536 5.51358 21.581 5.19852C21.2659 4.88346 20.6358 4.5684 20.1632 4.5684C19.5331 4.41086 18.7454 4.41086 17.6427 4.41086H7.24569V9.45185H15.1222H17.6427C18.903 9.45185 19.6906 9.45185 20.3208 9.29432C20.7933 9.29432 21.4235 8.97926 21.7385 8.6642C22.0536 8.50667 22.2111 7.87654 22.2111 6.93136ZM18.7454 19.3763C20.1632 19.3763 21.1084 19.3763 21.7385 19.2188C22.3687 19.0612 22.9988 18.9037 23.3138 18.4311C23.7864 17.9585 23.944 17.3284 23.944 16.3832C23.944 15.438 23.7864 14.8079 23.3138 14.4928C22.8412 14.0202 22.3687 13.8627 21.7385 13.7052C21.1084 13.5477 20.0057 13.5477 18.7454 13.5477H7.24569V19.2188C11.9716 19.2188 15.4373 19.2188 17.4852 19.2188L18.7454 19.3763Z" fill="white"/>
<path d="M39.382 24.1022H33.0808V0H39.382V24.1022Z" fill="white"/>
<path d="M54.0327 5.67112C56.3957 5.67112 58.4436 6.14371 60.3339 6.93137C62.2243 7.71902 63.6421 8.97927 64.5873 10.397C65.69 11.8148 66.1626 13.5477 66.1626 15.2805C66.1626 17.1709 65.69 18.7462 64.5873 20.164C63.4846 21.5817 62.0668 22.6845 60.3339 23.6296C58.4436 24.4173 56.3957 24.8899 54.0327 24.8899C51.6697 24.8899 49.7794 24.4173 47.7315 23.6296C45.8411 22.842 44.2658 21.5817 43.0055 20.164C41.9028 18.7462 41.2727 17.0133 41.2727 15.2805C41.2727 13.5477 41.9028 11.8148 43.0055 10.397C44.1083 8.97927 45.6836 7.71902 47.7315 6.93137C49.6218 5.98618 51.8273 5.67112 54.0327 5.67112ZM54.0327 20.6366C55.608 20.6366 57.0258 20.164 58.1285 19.2188C59.2312 18.2736 59.8613 16.8558 59.8613 15.123C59.8613 13.3901 59.2312 11.9724 58.1285 11.0272C57.0258 10.082 55.608 9.60939 54.0327 9.60939C53.0875 9.60939 51.9848 9.76692 51.0396 10.2395C50.0944 10.5546 49.3068 11.1847 48.8342 12.1299C48.2041 12.9175 47.889 14.0203 47.889 15.123C47.889 16.3832 48.2041 17.3284 48.8342 18.1161C49.4643 18.9037 50.252 19.5338 51.0396 20.0064C51.9848 20.479 52.93 20.6366 54.0327 20.6366Z" fill="white"/>
<path d="M67.2661 15.2805C67.2661 13.3901 67.7387 11.8148 68.8414 10.397C69.9441 8.97927 71.3619 7.71902 73.2523 6.93137C75.1427 6.14371 77.1906 5.67112 79.396 5.67112C82.7041 5.67112 85.2246 6.30124 87.2725 7.71902C89.3204 9.1368 90.5807 11.0272 91.2108 13.3901H84.752C84.437 12.2874 83.8069 11.4998 82.8617 10.7121C81.9165 10.082 80.8138 9.60939 79.396 9.60939C77.6632 9.60939 76.2454 10.082 75.1427 11.1847C74.0399 12.1299 73.5673 13.5477 73.5673 15.123C73.5673 16.0682 73.7249 17.0133 74.1975 17.801C74.6701 18.5887 75.3002 19.3763 76.0878 19.8489C76.8755 20.3215 77.9782 20.6366 79.0809 20.6366C80.4987 20.6366 81.6014 20.3215 82.5466 19.6914C83.4918 19.0612 84.1219 18.1161 84.437 17.0133H90.8957C90.7382 18.4311 89.9506 19.6914 89.0054 20.9516C87.9027 22.0543 86.4849 22.9995 84.752 23.7872C83.0192 24.4173 81.1288 24.8899 79.2385 24.8899C77.033 24.8899 74.9851 24.4173 73.0948 23.6296C71.2044 22.842 69.7866 21.5817 68.6839 20.164C67.8962 18.7462 67.2661 17.1709 67.2661 15.2805Z" fill="white"/>
<path d="M105.703 14.3353L115.785 24.1022H108.066L99.2439 15.5956V24.1022H92.7852V0H99.2439V13.0751L106.805 6.30124H114.524L105.703 14.3353Z" fill="white"/>
<path d="M113.58 15.2805C113.58 13.3901 114.052 11.8148 115.155 10.397C116.258 8.97927 117.675 7.71902 119.566 6.93137C121.456 6.14371 123.504 5.67112 125.709 5.67112C129.018 5.67112 131.538 6.30124 133.586 7.71902C135.634 9.1368 136.894 11.0272 137.524 13.3901H131.066C130.75 12.4449 130.12 11.4998 129.175 10.8696C128.23 10.2395 127.127 9.76692 125.709 9.76692C123.977 9.76692 122.559 10.2395 121.456 11.3422C120.353 12.2874 119.881 13.7052 119.881 15.2805C119.881 16.2257 120.038 17.1709 120.511 17.9585C120.984 18.7462 121.614 19.5338 122.401 20.0064C123.189 20.479 124.292 20.7941 125.394 20.7941C126.812 20.7941 127.915 20.479 128.86 19.8489C129.805 19.2188 130.435 18.2736 130.75 17.1709H137.209C137.052 18.5887 136.264 19.8489 135.319 21.1091C134.216 22.2119 132.798 23.157 131.066 23.9447C129.333 24.5748 127.442 25.0474 125.552 25.0474C123.347 25.0474 121.299 24.5748 119.408 23.7872C117.518 22.9995 116.1 21.7393 114.997 20.3215C114.052 18.7462 113.58 17.1709 113.58 15.2805Z" fill="white"/>
<path d="M153.277 5.82864C155.798 5.82864 157.688 6.77383 159.263 8.50667C160.839 10.2395 161.626 13.0751 161.626 16.8558V24.2598H155.168V17.0133C155.168 15.5956 155.01 14.4928 154.853 13.5477C154.695 12.4449 154.38 11.6573 153.592 11.0272C152.962 10.397 151.859 10.082 150.442 10.082C149.024 10.082 147.921 10.397 147.134 11.0272C146.503 11.6573 146.031 12.6025 145.716 13.5477C145.558 14.4928 145.401 15.5956 145.401 17.0133V24.2598H138.942V0H145.401V8.50667C147.291 6.6163 149.812 5.82864 153.277 5.82864Z" fill="white"/>
<path d="M175.331 5.51358C178.325 5.51358 181.16 5.98618 183.523 7.08889C185.886 8.19161 187.146 9.92445 187.146 12.6025V24.1022H181.16L180.688 21.4242V21.2667C180.215 22.2119 178.955 22.9995 177.222 23.6296C175.489 24.2598 173.441 24.4173 171.236 24.4173C169.503 24.4173 167.77 24.1022 166.037 23.3146C164.304 22.5269 163.359 21.1091 163.359 18.7462C163.359 16.3832 164.147 14.9654 165.565 14.3353C167.14 13.5477 168.715 13.2326 170.448 13.2326C173.756 13.2326 176.119 13.2326 177.379 13.2326C178.64 13.2326 179.585 13.0751 179.9 12.9175C180.372 12.76 180.53 12.4449 180.53 11.9723V11.4998C180.53 10.7121 179.9 10.082 178.955 9.76692C177.852 9.29432 176.749 9.13679 175.331 9.13679C173.756 9.13679 172.496 9.45186 171.551 9.92445C170.448 10.397 169.975 11.1847 169.975 12.1299H163.517C163.517 10.397 164.147 9.13679 165.407 8.19161C166.667 7.24642 168.243 6.6163 169.975 6.14371C171.866 5.82865 173.599 5.51358 175.331 5.51358ZM180.688 15.2805C179.585 15.7531 178.01 16.0682 175.804 16.0682C174.386 16.0682 173.126 16.0682 172.338 16.2257C171.551 16.3832 170.921 16.5407 170.448 16.8558C170.133 17.1709 169.818 17.4859 169.818 17.9585C169.818 18.7462 170.29 19.2188 170.921 19.5338C171.551 19.8489 172.811 20.164 174.386 20.164C176.592 20.164 178.167 19.6914 179.112 18.7462C180.215 17.801 180.688 16.5407 180.688 15.2805Z" fill="white"/>
<path d="M195.811 0H189.353V4.41086H195.811V0ZM195.811 24.1022H189.353V5.35605H195.811V24.1022Z" fill="white"/>
<path d="M212.194 5.82864C214.872 5.82864 216.762 6.61629 218.337 8.34913C219.755 10.082 220.543 12.9175 220.543 16.8558V24.2598H214.084V17.0133C214.084 15.5956 213.927 14.4928 213.769 13.5477C213.611 12.6025 213.139 11.8148 212.509 11.1847C211.879 10.5546 210.776 10.2395 209.358 10.2395C207.94 10.2395 206.838 10.5546 206.05 11.1847C205.42 11.8148 204.947 12.6025 204.632 13.5477C204.475 14.4928 204.317 15.7531 204.317 17.1709V24.4173H197.858V6.30123H204.317V8.50666C206.05 6.77383 208.57 5.82864 212.194 5.82864Z" fill="white"/>
<path d="M17.4849 42.6909C19.8479 42.6909 21.7383 42.8484 23.4711 43.1635C25.204 43.4785 26.6217 44.1087 27.7245 45.0538C28.8272 45.999 29.4573 47.4168 29.4573 49.1496C29.4573 52.4578 28.0395 54.8208 25.0464 55.9235C22.0533 57.0262 18.7452 57.6563 14.9645 57.6563C11.3412 57.6563 7.87557 57.0262 4.72495 55.9235C1.57433 54.6632 -0.000976562 52.4578 -0.000976562 48.9921H7.08791C7.08791 50.2524 7.5605 51.04 8.50569 51.6701C9.45088 52.3003 10.5536 52.6153 11.6563 52.7729C12.759 52.9304 14.0193 52.9304 15.2795 52.9304C17.3274 52.9304 18.9027 52.6153 20.3205 52.1427C21.7383 51.5126 22.5259 50.7249 22.5259 49.4647C22.5259 48.5195 21.7383 47.8894 20.3205 47.7319C18.9027 47.4168 17.1699 47.2593 15.2795 47.2593H13.2316C10.5536 47.2593 8.34816 47.1017 6.45779 46.9442C4.72495 46.3141 3.14964 45.684 1.88939 44.5812C0.629147 43.6361 -0.000976562 42.2183 -0.000976562 40.1704C-0.000976562 34.6568 5.04001 31.9788 14.9645 31.9788C18.5877 31.9788 21.7383 32.6089 24.8889 33.7116C27.882 34.9719 29.4573 37.1773 29.4573 40.643H22.3684C22.3684 39.3827 21.5808 38.4375 20.163 37.8074C18.7452 37.1773 17.0124 36.8622 14.9645 36.7047C12.759 36.7047 10.8687 37.0198 9.29334 37.4924C7.71804 37.9649 6.93038 38.7526 6.93038 40.0128C6.93038 41.7457 9.45088 42.6909 14.6494 42.6909H17.4849Z" fill="white"/>
<path d="M55.2925 48.362C55.2925 49.9373 54.8199 51.3551 54.1898 52.7728C53.4022 54.1906 52.457 55.2933 51.0392 56.2385C49.779 57.0262 48.2036 57.4988 46.4708 57.4988C42.6901 57.4988 39.8545 56.5536 37.8066 54.8207V63.0123H31.5054V39.0677H37.334L37.8066 41.4306C39.697 39.5402 42.6901 38.5951 46.6283 38.5951C48.3612 38.5951 49.779 39.0677 51.1967 39.8553C52.457 40.643 53.5597 41.7457 54.3473 43.321C55.135 44.7388 55.4501 46.3141 55.4501 48.2044L55.2925 48.362ZM43.1627 53.5605C44.2654 53.5605 45.3681 53.2454 46.1557 52.7728C46.9434 52.3002 47.5735 51.5126 48.0461 50.7249C48.5187 49.9373 48.6762 48.9921 48.6762 48.2044C48.6762 46.6291 48.2036 45.2114 47.2585 44.1086C46.3133 43.0059 44.8955 42.5333 43.1627 42.5333C42.2175 42.5333 41.2723 42.8484 40.4846 43.321C39.697 43.7936 39.0669 44.4237 38.5943 45.3689C38.1217 46.1565 37.9641 47.1017 37.9641 48.0469C37.9641 49.6222 38.4367 51.04 39.3819 51.9852C40.3271 52.9304 41.5873 53.5605 43.1627 53.5605Z" fill="white"/>
<path d="M69.1553 38.28C71.5182 38.28 73.5661 38.7526 75.4565 39.5403C77.3469 40.3279 78.7646 41.5882 79.7098 43.0059C80.8125 44.4237 81.2851 46.1566 81.2851 47.8894C81.2851 49.6222 80.8125 51.3551 79.7098 52.7728C78.6071 54.1906 77.1893 55.2933 75.4565 56.2385C73.5661 57.0262 71.5182 57.4988 69.1553 57.4988C66.7923 57.4988 64.9019 57.0262 62.854 56.2385C60.9637 55.4509 59.3884 54.1906 58.1281 52.7728C57.0254 51.3551 56.3953 49.6222 56.3953 47.8894C56.3953 46.1566 57.0254 44.4237 58.1281 43.0059C59.2308 41.5882 60.8061 40.3279 62.854 39.5403C64.9019 38.7526 66.9498 38.28 69.1553 38.28ZM69.1553 53.403C70.7306 53.403 72.1484 52.9304 73.2511 51.9852C74.3538 51.04 74.9839 49.6222 74.9839 47.8894C74.9839 46.1566 74.3538 44.7388 73.2511 43.7936C72.1484 42.8484 70.7306 42.3758 69.1553 42.3758C68.2101 42.3758 67.1074 42.5333 66.1622 43.0059C65.217 43.321 64.4293 43.9511 63.9567 44.8963C63.3266 45.684 63.0116 46.7867 63.0116 47.8894C63.0116 49.1496 63.3266 50.0948 63.9567 50.8825C64.5869 51.6701 65.3745 52.3003 66.1622 52.7728C67.2649 53.2454 68.2101 53.403 69.1553 53.403Z" fill="white"/>
<path d="M89.4778 42.0607C91.2106 40.1704 93.8887 39.0677 97.5119 38.7526V43.7936H93.4161C91.8408 43.7936 90.8956 44.2662 90.2655 45.3689C89.7929 46.4716 89.4778 47.8894 89.4778 49.6222V56.8686H83.019V39.0677H88.6902L89.4778 42.0607Z" fill="white"/>
<path d="M109.326 39.0676H112.792V43.636H109.326V56.8686H102.867V43.636H99.2439V39.0676H102.867V35.2869L109.326 32.2938V39.0676Z" fill="white"/>
<path d="M125.866 46.3141C126.496 46.3141 126.969 46.3141 127.284 46.3141H129.017C131.537 46.3141 133.585 46.6291 135.161 47.2593C136.736 47.8894 137.524 49.1496 137.524 51.1975C137.524 53.718 136.421 55.4509 134.058 56.2385C131.695 57.0262 129.174 57.4988 126.024 57.4988C123.031 57.4988 120.353 57.0262 117.832 56.2385C115.312 55.2933 114.209 53.5605 114.209 51.04H120.668C120.668 52.1427 121.14 52.9304 122.243 53.2454C123.346 53.5605 124.606 53.8756 126.024 53.8756C127.757 53.8756 129.174 53.718 129.962 53.2454C130.75 52.9304 131.222 52.3002 131.222 51.3551C131.222 50.5674 130.75 50.0948 129.805 49.7798C128.859 49.4647 128.072 49.4647 127.284 49.4647H125.866C123.818 49.4647 121.928 49.3072 120.353 49.1496C118.777 48.9921 117.36 48.362 116.099 47.5743C114.839 46.7867 114.209 45.5264 114.209 43.9511C114.209 41.5881 115.469 40.0128 117.832 39.2252C120.195 38.4375 122.873 38.1225 126.024 38.1225C129.174 38.1225 131.695 38.5951 134.058 39.3827C136.421 40.3279 137.524 42.0607 137.524 44.5812H131.065C131.065 43.4785 130.435 42.6909 129.174 42.3758C127.914 42.0607 126.811 41.7457 125.866 41.7457C122.401 41.7457 120.51 42.3758 120.51 43.7936C120.825 45.5264 122.558 46.3141 125.866 46.3141Z" fill="white"/>
<path d="M237.084 4.72592C237.241 4.25332 238.029 4.25332 238.187 4.72592L240.235 9.60937C240.392 9.7669 240.55 9.92443 240.707 9.92443L246.063 10.397C246.536 10.397 246.851 11.0272 246.378 11.4997L242.282 14.9654C242.125 15.123 241.967 15.2805 242.125 15.5955L243.385 20.7941C243.543 21.2667 242.913 21.7393 242.44 21.4242L237.872 18.5886C237.714 18.4311 237.399 18.4311 237.241 18.5886L232.673 21.4242C232.2 21.7393 231.728 21.2667 231.728 20.7941L232.988 15.5955C232.988 15.438 232.988 15.123 232.831 14.9654L228.735 11.4997C228.262 11.1847 228.577 10.5546 229.05 10.397L234.406 9.92443C234.563 9.92443 234.878 9.7669 234.878 9.60937L237.084 4.72592Z" fill="white"/>
<path d="M154.537 32.6089H245.432C250.789 32.6089 255.199 36.8622 255.199 42.2183V53.0879C255.199 58.4439 250.789 62.6973 245.432 62.6973H154.537C149.181 62.6973 144.77 58.4439 144.77 53.0879V42.2183C144.928 36.8622 149.181 32.6089 154.537 32.6089Z" fill="#25CA71"/>
<path d="M162.572 53.2454L164.777 41.9032H172.338L172.023 43.9511H166.667L166.195 46.6291H171.078L170.763 48.5195H165.88L164.934 53.0879H162.572V53.2454Z" fill="white"/>
<path d="M176.119 53.403C173.284 53.403 171.551 51.6701 172.181 48.5195L172.496 46.6291C173.126 43.4785 175.017 41.7457 178.167 41.7457C181.003 41.7457 182.736 43.4785 182.106 46.6291L181.791 48.5195C181.16 51.6701 179.27 53.403 176.119 53.403ZM174.387 48.5195C174.072 50.4099 174.859 51.355 176.435 51.355C178.01 51.355 179.27 50.4099 179.585 48.5195L179.9 46.6291C180.215 44.7388 179.428 43.9511 177.852 43.9511C176.277 43.9511 175.017 44.8963 174.702 46.6291L174.387 48.5195Z" fill="white"/>
<path d="M186.359 53.403C183.524 53.403 181.791 51.6701 182.421 48.5195L182.736 46.6291C183.366 43.4785 185.256 41.7457 188.407 41.7457C191.243 41.7457 192.975 43.4785 192.345 46.6291L192.03 48.5195C191.4 51.6701 189.51 53.403 186.359 53.403ZM184.626 48.5195C184.311 50.4099 185.099 51.355 186.674 51.355C188.25 51.355 189.51 50.4099 189.825 48.5195L190.14 46.6291C190.455 44.7388 189.667 43.9511 188.092 43.9511C186.517 43.9511 185.256 44.8963 184.941 46.6291L184.626 48.5195Z" fill="white"/>
<path d="M195.023 53.2454L196.756 43.9511H193.448L193.763 41.9032H202.585L202.27 43.9511H198.962L197.229 53.2454H195.023Z" fill="white"/>
<path d="M201.954 53.2454L204.16 41.9032H209.043C210.619 41.9032 211.879 42.8484 211.879 44.4237C211.879 45.6839 211.249 46.7867 210.461 47.4168C210.934 47.7318 211.406 48.362 211.406 49.1496C211.406 51.5126 209.831 53.2454 207.153 53.2454H201.954ZM204.475 51.1975H207.153C208.256 51.1975 208.886 50.5674 208.886 49.6222C208.886 48.9921 208.413 48.677 207.625 48.677H204.947L204.475 51.1975ZM205.42 46.6291H207.783C208.728 46.6291 209.516 45.999 209.516 45.0538C209.516 44.5812 209.201 44.1086 208.413 44.1086H206.05L205.42 46.6291Z" fill="white"/>
<path d="M218.81 53.2454L218.653 50.7249H214.242L213.139 53.2454H210.776L216.132 41.9032H220.228L221.016 53.2454H218.81ZM215.187 48.5195H218.495L218.023 42.3758L215.187 48.5195Z" fill="white"/>
<path d="M221.803 53.2454L224.009 41.9032H226.214L224.481 51.1975H229.522L229.207 53.2454H221.803Z" fill="white"/>
<path d="M229.838 53.2454L232.043 41.9032H234.249L232.516 51.1975H237.557L237.242 53.2454H229.838Z" fill="white"/>
</g>
<defs>
<clipPath id="clip0_2571_5577">
<rect width="255.2" height="63.0123" fill="white"/>
</clipPath>
</defs>
</svg>
