<svg width="24" height="24" viewBox="0 0 24 24" fill="none" xmlns="http://www.w3.org/2000/svg">
<path d="M21.986 9.73999C21.9837 9.71062 21.9811 9.68129 21.978 9.65199C21.8893 8.39117 21.3267 7.21064 20.4033 6.34765C19.4798 5.48467 18.2639 5.00319 17 4.99999H7C5.71833 4.9942 4.48398 5.48376 3.5547 6.36646C2.62542 7.24915 2.07307 8.45672 2.013 9.73699C2.003 9.81599 2 9.89799 2 9.98999V16.5C2 17.425 2.373 18.328 3.022 18.976C3.68081 19.6305 4.57134 19.9985 5.5 20C7.3 20 8.004 19 9 17C9.146 16.708 9.992 15 12 15C13.996 15 14.853 16.707 15 17C16.004 19 16.7 20 18.5 20C19.425 20 20.328 19.627 20.976 18.978C21.6305 18.3192 21.9985 17.4286 22 16.5V9.99999C22 9.90499 21.996 9.81999 21.986 9.73999ZM7 12.031C6.73366 12.037 6.4688 11.9898 6.22098 11.892C5.97315 11.7943 5.74735 11.648 5.55683 11.4618C5.36631 11.2756 5.21491 11.0532 5.11153 10.8076C5.00814 10.5621 4.95485 10.2984 4.95478 10.032C4.95472 9.76559 5.00788 9.50186 5.11114 9.25628C5.2144 9.0107 5.36569 8.78822 5.55611 8.60191C5.74654 8.41561 5.97227 8.26922 6.22005 8.17135C6.46782 8.07348 6.73266 8.0261 6.999 8.03199C7.52156 8.04354 8.01883 8.25921 8.38437 8.63283C8.74991 9.00644 8.95465 9.50831 8.95478 10.031C8.95492 10.5537 8.75042 11.0557 8.38507 11.4295C8.01972 11.8033 7.52256 12.0192 7 12.031ZM17 7.03099C17.2652 7.03099 17.5196 7.13635 17.7071 7.32388C17.8946 7.51142 18 7.76577 18 8.03099C18 8.29621 17.8946 8.55056 17.7071 8.7381C17.5196 8.92563 17.2652 9.03099 17 9.03099C16.7348 9.03099 16.4804 8.92563 16.2929 8.7381C16.1054 8.55056 16 8.29621 16 8.03099C16 7.76577 16.1054 7.51142 16.2929 7.32388C16.4804 7.13635 16.7348 7.03099 17 7.03099ZM15 11.031C14.7348 11.031 14.4804 10.9256 14.2929 10.7381C14.1054 10.5506 14 10.2962 14 10.031C14 9.76577 14.1054 9.51142 14.2929 9.32388C14.4804 9.13635 14.7348 9.03099 15 9.03099C15.2652 9.03099 15.5196 9.13635 15.7071 9.32388C15.8946 9.51142 16 9.76577 16 10.031C16 10.2962 15.8946 10.5506 15.7071 10.7381C15.5196 10.9256 15.2652 11.031 15 11.031ZM17 13.031C16.7348 13.031 16.4804 12.9256 16.2929 12.7381C16.1054 12.5506 16 12.2962 16 12.031C16 11.7658 16.1054 11.5114 16.2929 11.3239C16.4804 11.1363 16.7348 11.031 17 11.031C17.2652 11.031 17.5196 11.1363 17.7071 11.3239C17.8946 11.5114 18 11.7658 18 12.031C18 12.2962 17.8946 12.5506 17.7071 12.7381C17.5196 12.9256 17.2652 13.031 17 13.031ZM19 11.031C18.7348 11.031 18.4804 10.9256 18.2929 10.7381C18.1054 10.5506 18 10.2962 18 10.031C18 9.76577 18.1054 9.51142 18.2929 9.32388C18.4804 9.13635 18.7348 9.03099 19 9.03099C19.2652 9.03099 19.5196 9.13635 19.7071 9.32388C19.8946 9.51142 20 9.76577 20 10.031C20 10.2962 19.8946 10.5506 19.7071 10.7381C19.5196 10.9256 19.2652 11.031 19 11.031Z" fill="#F3D523"/>
</svg>
