<svg width="25" height="25" viewBox="0 0 25 25" fill="none" xmlns="http://www.w3.org/2000/svg">
    <path d="M8.50011 11.5C8.30233 11.5 8.10899 11.5586 7.94454 11.6685C7.78009 11.7784 7.65192 11.9346 7.57623 12.1173C7.50054 12.3 7.48074 12.5011 7.51932 12.6951C7.55791 12.8891 7.65315 13.0673 7.793 13.2071C7.93286 13.347 8.11104 13.4422 8.30502 13.4808C8.499 13.5194 8.70007 13.4996 8.88279 13.4239C9.06552 13.3482 9.2217 13.22 9.33158 13.0556C9.44146 12.8911 9.50011 12.6978 9.50011 12.5C9.50011 12.2348 9.39475 11.9804 9.20722 11.7929C9.01968 11.6054 8.76533 11.5 8.50011 11.5ZM12.5001 11.5C12.3023 11.5 12.109 11.5586 11.9445 11.6685C11.7801 11.7784 11.6519 11.9346 11.5762 12.1173C11.5005 12.3 11.4807 12.5011 11.5193 12.6951C11.5579 12.8891 11.6532 13.0673 11.793 13.2071C11.9329 13.347 12.111 13.4422 12.305 13.4808C12.499 13.5194 12.7001 13.4996 12.8828 13.4239C13.0655 13.3482 13.2217 13.22 13.3316 13.0556C13.4415 12.8911 13.5001 12.6978 13.5001 12.5C13.5001 12.2348 13.3948 11.9804 13.2072 11.7929C13.0197 11.6054 12.7653 11.5 12.5001 11.5ZM16.5001 11.5C16.3023 11.5 16.109 11.5586 15.9445 11.6685C15.7801 11.7784 15.6519 11.9346 15.5762 12.1173C15.5005 12.3 15.4807 12.5011 15.5193 12.6951C15.5579 12.8891 15.6532 13.0673 15.793 13.2071C15.9329 13.347 16.111 13.4422 16.305 13.4808C16.499 13.5194 16.7001 13.4996 16.8828 13.4239C17.0655 13.3482 17.2217 13.22 17.3316 13.0556C17.4415 12.8911 17.5001 12.6978 17.5001 12.5C17.5001 12.2348 17.3948 11.9804 17.2072 11.7929C17.0197 11.6054 16.7653 11.5 16.5001 11.5ZM12.5001 2.5C11.1869 2.5 9.88653 2.75866 8.67328 3.2612C7.46002 3.76375 6.35763 4.50035 5.42904 5.42893C3.55368 7.3043 2.50011 9.84784 2.50011 12.5C2.49137 14.8091 3.2909 17.0485 4.76011 18.83L2.76011 20.83C2.62135 20.9706 2.52736 21.1492 2.48998 21.3432C2.45261 21.5372 2.47353 21.7379 2.55011 21.92C2.63317 22.0999 2.76781 22.2511 2.93696 22.3544C3.1061 22.4577 3.30211 22.5083 3.50011 22.5H12.5001C15.1523 22.5 17.6958 21.4464 19.5712 19.5711C21.4465 17.6957 22.5001 15.1522 22.5001 12.5C22.5001 9.84784 21.4465 7.3043 19.5712 5.42893C17.6958 3.55357 15.1523 2.5 12.5001 2.5ZM12.5001 20.5H5.91011L6.84011 19.57C6.9346 19.4774 7.00977 19.3669 7.06126 19.2451C7.11276 19.1232 7.13956 18.9923 7.14011 18.86C7.13635 18.5962 7.02852 18.3446 6.84011 18.16C5.5307 16.852 4.71528 15.1305 4.5328 13.2888C4.35032 11.447 4.81205 9.59901 5.83934 8.05952C6.86662 6.52004 8.3959 5.38436 10.1666 4.84597C11.9374 4.30759 13.84 4.3998 15.5503 5.10691C17.2607 5.81402 18.673 7.09227 19.5465 8.72389C20.4201 10.3555 20.701 12.2395 20.3412 14.055C19.9815 15.8705 19.0034 17.505 17.5736 18.6802C16.1439 19.8554 14.3509 20.4985 12.5001 20.5Z" fill="#F3D523"/>
    </svg>
    