<svg width="21" height="21" viewBox="0 0 21 21" fill="none" xmlns="http://www.w3.org/2000/svg">
    <path
        d="M6.50011 9.5C6.30233 9.5 6.10899 9.55865 5.94454 9.66853C5.78009 9.77841 5.65192 9.93459 5.57623 10.1173C5.50054 10.3 5.48074 10.5011 5.51932 10.6951C5.55791 10.8891 5.65315 11.0673 5.793 11.2071C5.93286 11.347 6.11104 11.4422 6.30502 11.4808C6.499 11.5194 6.70007 11.4996 6.88279 11.4239C7.06552 11.3482 7.2217 11.22 7.33158 11.0556C7.44146 10.8911 7.50011 10.6978 7.50011 10.5C7.50011 10.2348 7.39475 9.98043 7.20722 9.79289C7.01968 9.60536 6.76533 9.5 6.50011 9.5ZM10.5001 9.5C10.3023 9.5 10.109 9.55865 9.94454 9.66853C9.78009 9.77841 9.65192 9.93459 9.57623 10.1173C9.50054 10.3 9.48074 10.5011 9.51933 10.6951C9.55791 10.8891 9.65315 11.0673 9.793 11.2071C9.93286 11.347 10.111 11.4422 10.305 11.4808C10.499 11.5194 10.7001 11.4996 10.8828 11.4239C11.0655 11.3482 11.2217 11.22 11.3316 11.0556C11.4415 10.8911 11.5001 10.6978 11.5001 10.5C11.5001 10.2348 11.3948 9.98043 11.2072 9.79289C11.0197 9.60536 10.7653 9.5 10.5001 9.5ZM14.5001 9.5C14.3023 9.5 14.109 9.55865 13.9445 9.66853C13.7801 9.77841 13.6519 9.93459 13.5762 10.1173C13.5005 10.3 13.4807 10.5011 13.5193 10.6951C13.5579 10.8891 13.6532 11.0673 13.793 11.2071C13.9329 11.347 14.111 11.4422 14.305 11.4808C14.499 11.5194 14.7001 11.4996 14.8828 11.4239C15.0655 11.3482 15.2217 11.22 15.3316 11.0556C15.4415 10.8911 15.5001 10.6978 15.5001 10.5C15.5001 10.2348 15.3948 9.98043 15.2072 9.79289C15.0197 9.60536 14.7653 9.5 14.5001 9.5ZM10.5001 0.5C9.18689 0.5 7.88653 0.758658 6.67328 1.2612C5.46002 1.76375 4.35763 2.50035 3.42904 3.42893C1.55368 5.3043 0.50011 7.84784 0.50011 10.5C0.491368 12.8091 1.2909 15.0485 2.76011 16.83L0.76011 18.83C0.621353 18.9706 0.527356 19.1492 0.489982 19.3432C0.452608 19.5372 0.473531 19.7379 0.55011 19.92C0.633168 20.0999 0.767814 20.2511 0.936957 20.3544C1.1061 20.4577 1.30211 20.5083 1.50011 20.5H10.5001C13.1523 20.5 15.6958 19.4464 17.5712 17.5711C19.4465 15.6957 20.5001 13.1522 20.5001 10.5C20.5001 7.84784 19.4465 5.3043 17.5712 3.42893C15.6958 1.55357 13.1523 0.5 10.5001 0.5ZM10.5001 18.5H3.91011L4.84011 17.57C4.9346 17.4774 5.00977 17.3669 5.06126 17.2451C5.11276 17.1232 5.13956 16.9923 5.14011 16.86C5.13635 16.5962 5.02852 16.3446 4.84011 16.16C3.5307 14.852 2.71528 13.1305 2.5328 11.2888C2.35032 9.44705 2.81205 7.59901 3.83934 6.05952C4.86662 4.52004 6.3959 3.38436 8.16663 2.84597C9.93735 2.30759 11.84 2.3998 13.5503 3.10691C15.2607 3.81402 16.673 5.09227 17.5465 6.72389C18.4201 8.35551 18.701 10.2395 18.3412 12.055C17.9815 13.8705 17.0034 15.505 15.5736 16.6802C14.1439 17.8554 12.3509 18.4985 10.5001 18.5Z"
        fill="#F3D523" />
</svg>
    