<svg width="12" height="12" viewBox="0 0 12 12" fill="none" xmlns="http://www.w3.org/2000/svg">
<path d="M1.8047 0.86201C1.54435 0.601661 1.12224 0.601661 0.861888 0.86201C0.601539 1.12236 0.601539 1.54447 0.861888 1.80482L5.0572 6.00013L0.861888 10.1954C0.601539 10.4558 0.601539 10.8779 0.861888 11.1383C1.12224 11.3986 1.54435 11.3986 1.8047 11.1383L6.00001 6.94294L10.1952 11.1382C10.4556 11.3985 10.8777 11.3985 11.138 11.1382C11.3984 10.8778 11.3984 10.4557 11.138 10.1953L6.94282 6.00013L11.138 1.80492C11.3984 1.54457 11.3984 1.12246 11.138 0.862111C10.8777 0.601761 10.4556 0.601761 10.1952 0.862111L6.00001 5.05732L1.8047 0.86201Z" fill="#090723"/>
</svg>
