<svg width="21" height="21" viewBox="0 0 21 21" fill="none" xmlns="http://www.w3.org/2000/svg">
<path d="M3.14688 16.1469H7.38688C7.51849 16.1477 7.64895 16.1224 7.77079 16.0727C7.89262 16.0229 8.00344 15.9496 8.09688 15.8569L15.0169 8.92691L17.8569 6.14691C17.9506 6.05395 18.025 5.94335 18.0758 5.82149C18.1265 5.69963 18.1527 5.56892 18.1527 5.43691C18.1527 5.3049 18.1265 5.17419 18.0758 5.05233C18.025 4.93048 17.9506 4.81987 17.8569 4.72691L13.6169 0.436912C13.5239 0.343183 13.4133 0.268789 13.2915 0.21802C13.1696 0.167252 13.0389 0.141113 12.9069 0.141113C12.7749 0.141113 12.6442 0.167252 12.5223 0.21802C12.4004 0.268789 12.2898 0.343183 12.1969 0.436912L9.37688 3.26691L2.43688 10.1969C2.3442 10.2904 2.27087 10.4012 2.22111 10.523C2.17135 10.6448 2.14612 10.7753 2.14688 10.9069V15.1469C2.14688 15.4121 2.25224 15.6665 2.43977 15.854C2.62731 16.0416 2.88166 16.1469 3.14688 16.1469ZM12.9069 2.55691L15.7369 5.38691L14.3169 6.80691L11.4869 3.97691L12.9069 2.55691ZM4.14688 11.3169L10.0769 5.38691L12.9069 8.21691L6.97688 14.1469H4.14688V11.3169ZM19.1469 18.1469H1.14688C0.881665 18.1469 0.627311 18.2523 0.439774 18.4398C0.252238 18.6273 0.146881 18.8817 0.146881 19.1469C0.146881 19.4121 0.252238 19.6665 0.439774 19.854C0.627311 20.0416 0.881665 20.1469 1.14688 20.1469H19.1469C19.4121 20.1469 19.6665 20.0416 19.854 19.854C20.0415 19.6665 20.1469 19.4121 20.1469 19.1469C20.1469 18.8817 20.0415 18.6273 19.854 18.4398C19.6665 18.2523 19.4121 18.1469 19.1469 18.1469Z" fill="#6C6226"/>
</svg>
