<svg width="19" height="15" viewBox="0 0 19 15" fill="none" xmlns="http://www.w3.org/2000/svg">
<path fill-rule="evenodd" clip-rule="evenodd" d="M0 2.5C0 1.11929 1.11929 0 2.5 0H15.8333C17.214 0 18.3333 1.11929 18.3333 2.5V12.5C18.3333 13.8807 17.214 15 15.8333 15H2.5C1.11929 15 0 13.8807 0 12.5V2.5ZM2.5 1.66667C2.03976 1.66667 1.66667 2.03976 1.66667 2.5V3.69484L8.73792 7.93759C9.00182 8.09593 9.33151 8.09593 9.59541 7.93759L16.6667 3.69484V2.5C16.6667 2.03976 16.2936 1.66667 15.8333 1.66667H2.5ZM16.6667 5.63849L10.4529 9.36675C9.6612 9.84177 8.67213 9.84177 7.88043 9.36675L1.66667 5.63849V12.5C1.66667 12.9602 2.03976 13.3333 2.5 13.3333H15.8333C16.2936 13.3333 16.6667 12.9602 16.6667 12.5V5.63849Z" fill="#B4B4B4"/>
</svg>
