<svg width="20" height="20" viewBox="0 0 20 20" fill="none" xmlns="http://www.w3.org/2000/svg">
<g clip-path="url(#clip0_2553_1790)">
<path d="M1.50004 7.00004C1.2239 6.63185 0.701562 6.55723 0.333372 6.83337C-0.0348177 7.10951 -0.109437 7.63185 0.166705 8.00004C0.479421 8.41699 0.883602 8.87686 1.38386 9.33859L0.139829 11.2044C-0.115487 11.5873 -0.012038 12.1047 0.370888 12.3601C0.753814 12.6154 1.27121 12.5119 1.52653 12.129L2.69433 10.3775C3.30014 10.7889 3.99268 11.1748 4.77572 11.5017L4.19876 13.5212C4.07233 13.9638 4.32859 14.425 4.77112 14.5514C5.21365 14.6778 5.67488 14.4216 5.80131 13.9791L6.35564 12.0388C7.20795 12.2665 8.1439 12.4223 9.16671 12.4777V14.1667C9.16671 14.6269 9.5398 15 10 15C10.4603 15 10.8334 14.6269 10.8334 14.1667V12.4777C11.8624 12.422 12.8035 12.2646 13.6599 12.0346L14.1434 13.9655C14.2551 14.412 14.7077 14.6833 15.1541 14.5715C15.6006 14.4597 15.8719 14.0072 15.7601 13.5607L15.2427 11.494C16.0182 11.1688 16.7046 10.7857 17.3057 10.3776L18.4731 12.1289C18.7284 12.5119 19.2458 12.6154 19.6287 12.3601C20.0117 12.1049 20.1152 11.5875 19.8599 11.2045L18.6161 9.33865C19.1164 8.8769 19.5206 8.41701 19.8334 8.00004C20.1095 7.63185 20.0349 7.10951 19.6667 6.83337C19.2985 6.55723 18.7762 6.63185 18.5 7.00004C17.3767 8.49781 14.6928 10.8304 10.0089 10.8334L10 10.8333L9.99118 10.8334C5.30724 10.8304 2.62337 8.49781 1.50004 7.00004Z" fill="#B4B4B4"/>
</g>
<defs>
<clipPath id="clip0_2553_1790">
<rect width="20" height="20" fill="white"/>
</clipPath>
</defs>
</svg>
