<svg width="21" height="18" viewBox="0 0 21 18" fill="none" xmlns="http://www.w3.org/2000/svg">
<path d="M19.1599 2.00004C18.0999 0.937251 16.6947 0.288583 15.1983 0.171213C13.7018 0.0538432 12.2127 0.475509 10.9999 1.36004C9.72758 0.413681 8.14392 -0.0154454 6.56785 0.159081C4.99178 0.333607 3.54037 1.09882 2.5059 2.30063C1.47144 3.50243 0.930751 5.05156 0.99273 6.63606C1.05471 8.22055 1.71475 9.72271 2.83993 10.84L9.04993 17.06C9.56995 17.5718 10.2703 17.8587 10.9999 17.8587C11.7295 17.8587 12.4299 17.5718 12.9499 17.06L19.1599 10.84C20.3275 9.66531 20.9828 8.07632 20.9828 6.42004C20.9828 4.76377 20.3275 3.17478 19.1599 2.00004ZM17.7499 9.46004L11.5399 15.67C11.4693 15.7414 11.3852 15.798 11.2925 15.8367C11.1998 15.8753 11.1004 15.8953 10.9999 15.8953C10.8995 15.8953 10.8001 15.8753 10.7074 15.8367C10.6147 15.798 10.5306 15.7414 10.4599 15.67L4.24993 9.43004C3.46569 8.62839 3.02654 7.55151 3.02654 6.43004C3.02654 5.30858 3.46569 4.2317 4.24993 3.43004C5.04908 2.64103 6.1269 2.19861 7.24993 2.19861C8.37295 2.19861 9.45077 2.64103 10.2499 3.43004C10.3429 3.52377 10.4535 3.59817 10.5754 3.64893C10.6972 3.6997 10.8279 3.72584 10.9599 3.72584C11.0919 3.72584 11.2226 3.6997 11.3445 3.64893C11.4664 3.59817 11.577 3.52377 11.6699 3.43004C12.4691 2.64103 13.5469 2.19861 14.6699 2.19861C15.793 2.19861 16.8708 2.64103 17.6699 3.43004C18.4649 4.22119 18.9185 5.29223 18.9335 6.41373C18.9484 7.53522 18.5236 8.61798 17.7499 9.43004V9.46004Z" fill="#F3D523"/>
<path d="M17.7499 9.46004L11.5399 15.67C11.4693 15.7414 11.3852 15.798 11.2925 15.8367C11.1998 15.8753 11.1004 15.8953 10.9999 15.8953C10.8995 15.8953 10.8001 15.8753 10.7074 15.8367C10.6147 15.798 10.5306 15.7414 10.4599 15.67L4.24993 9.43004C3.46569 8.62839 3.02654 7.55151 3.02654 6.43004C3.02654 5.30858 3.46569 4.2317 4.24993 3.43004C5.04908 2.64103 6.1269 2.19861 7.24993 2.19861C8.37295 2.19861 9.45077 2.64103 10.2499 3.43004C10.3429 3.52377 10.4535 3.59817 10.5754 3.64893C10.6972 3.6997 10.8279 3.72584 10.9599 3.72584C11.0919 3.72584 11.2226 3.6997 11.3445 3.64893C11.4664 3.59817 11.577 3.52377 11.6699 3.43004C12.4691 2.64103 13.5469 2.19861 14.6699 2.19861C15.793 2.19861 16.8708 2.64103 17.6699 3.43004C18.4649 4.22119 18.9185 5.29223 18.9335 6.41373C18.9484 7.53522 18.5236 8.61798 17.7499 9.43004V9.46004Z" fill="#F3D523"/>
</svg>
