<svg width="24" height="24" viewBox="0 0 24 24" fill="none" xmlns="http://www.w3.org/2000/svg">
<path d="M10.971 1.55399C11.0625 1.51718 11.1603 1.49877 11.2588 1.4998C11.3574 1.50083 11.4548 1.52128 11.5455 1.55999L18.8955 4.70999C19.02 4.76338 19.1276 4.84947 19.2071 4.95913C19.2866 5.06878 19.3349 5.19791 19.3469 5.3328C19.3589 5.46769 19.3341 5.60331 19.2752 5.72527C19.2164 5.84723 19.1256 5.95097 19.0125 6.02549L19.0095 6.02849L18.9945 6.03899L18.9255 6.08699C18.5389 6.3639 18.1738 6.66978 17.8335 7.00199C17.2425 7.58099 16.713 8.27399 16.5285 8.95799C16.8885 10.0005 17.4 11.1945 17.8395 12.159C18.0775 12.6823 18.3225 13.2023 18.5745 13.719L20.97 15.159C21.4364 15.4387 21.8225 15.8343 22.0906 16.3075C22.3587 16.7806 22.4997 17.3152 22.5 17.859V20.25C22.5001 20.4451 22.4242 20.6325 22.2883 20.7725C22.1525 20.9125 21.9675 20.9941 21.7725 21H21.7215C21.5125 21.0055 21.3035 21.0055 21.0945 21C18.5636 20.9409 16.0488 20.5798 13.6035 19.9245C9.237 18.7365 4.1085 16.209 1.572 10.8195C1.52354 10.7168 1.49904 10.6044 1.50034 10.4909C1.50164 10.3773 1.52871 10.2656 1.5795 10.164C2.3595 8.60549 3.9345 6.76949 5.6595 5.19149C7.38 3.61499 9.3495 2.20199 10.971 1.55399ZM21 19.497V18.6915C11.5095 17.85 6.24 13.917 3.6555 9.63299C3.441 9.93749 3.2505 10.233 3.0915 10.515C5.409 15.1005 9.912 17.3655 13.9965 18.477C16.2831 19.0894 18.6337 19.4317 21 19.497ZM20.199 16.4445L18.1155 15.195L16.7805 16.53C18.1221 16.8296 19.4813 17.0441 20.85 17.172C20.7113 16.8694 20.4844 16.6158 20.199 16.4445ZM15.2175 8.15099C15.573 7.24499 16.2285 6.47549 16.782 5.93099C16.9065 5.81099 17.028 5.69699 17.145 5.59199L11.2485 3.06599C10.014 3.62099 8.484 4.69049 7.0335 5.97299L8.781 7.71899C8.8506 7.78877 8.90577 7.87158 8.94335 7.96269C8.98092 8.05381 9.00017 8.15143 9 8.24999V13.1955C9.8145 13.7805 10.731 14.328 11.76 14.8215L13.332 12.7245L10.626 8.66549C10.5452 8.54381 10.5016 8.40116 10.5007 8.25507C10.4998 8.10899 10.5416 7.96582 10.6209 7.84315C10.7003 7.72048 10.8137 7.62365 10.9473 7.56455C11.0809 7.50545 11.2289 7.48666 11.373 7.51049L15.2175 8.15099Z" fill="#F3D523"/>
</svg>
