<svg width="25" height="24" viewBox="0 0 25 24" fill="none" xmlns="http://www.w3.org/2000/svg">
<path d="M1.55338 1.34814C6.59488 4.54071 11.2574 7.04486 16.6476 7.61439C18.5557 7.81596 18.8889 9.25221 18.1324 10.9004C16.8892 13.6086 18.9025 17.6292 23.3984 20.0628C23.1179 21.3747 21.2273 22.479 20.0628 22.0912C19.0933 20.0677 17.5831 17.9316 15.9469 18.5111C12.6003 19.6964 9.15397 19.9484 6.81392 18.6727C9.91831 18.2515 12.8736 17.4261 15.4764 16.1254C10.7741 16.8288 5.20658 16.8469 3.09688 14.4862C7.36517 14.6567 10.8248 14.2237 14.6872 13.2569C9.54275 12.7832 3.88658 11.8425 2.29423 8.6883C6.09003 9.87175 11.1803 10.3123 14.6239 10.3363C9.25906 8.98478 2.04388 5.28386 1.55328 1.34814H1.55338Z" fill="#F3D523"/>
</svg>
