<svg width="24" height="24" viewBox="0 0 24 24" fill="none" xmlns="http://www.w3.org/2000/svg">
<path d="M11.9545 1.58498C11.8686 1.58442 11.7826 1.58488 11.6967 1.58638C11.3812 1.59295 11.0657 1.61474 10.7519 1.64938C10.7675 1.65716 10.7774 1.66438 10.774 1.66991L9.59905 3.51857L13.0634 5.83593L13.0576 5.84474L16.3681 5.85787L17.3906 3.71634L16.0708 2.43749C15.3269 2.11858 14.5488 1.88612 13.7519 1.74468C13.1589 1.63968 12.5567 1.58718 11.9546 1.58498H11.9545ZM8.94875 4.13671L5.49613 5.86077L4.84864 10.4736L7.25539 12.0513L11.6778 10.0151L12.3751 6.42918L8.9488 4.13671H8.94875ZM18.1524 4.15284L17.1563 6.23877L18.8789 9.64752L21.7881 11.4712L22.3184 10.4736C22.3289 10.4803 22.3395 10.4925 22.3491 10.5088C22.313 10.2765 22.269 10.045 22.2174 9.81585C21.9153 8.4757 21.346 7.19263 20.5534 6.06726C20.1282 5.46388 19.6381 4.90579 19.0958 4.4032L18.1524 4.15279L18.1524 4.15284ZM3.96538 5.23096C3.64166 5.60807 3.34395 6.00721 3.07766 6.42627C2.34284 7.5824 1.83828 8.88693 1.60405 10.2378C1.48999 10.8969 1.43944 11.5655 1.45311 12.2344L2.40233 12.4731L3.95061 10.5747L4.62889 5.74359L3.96538 5.23096ZM18.6241 10.5205L16.0078 12.6182L15.8452 17.3569L17.7027 18.3472L21.3208 16.0225L21.5274 12.3311L21.523 12.3384L18.624 10.5205L18.6241 10.5205ZM12.022 10.8208L7.61422 12.8511L7.55713 16.4429L11.7363 19.1324L14.9677 17.4244L15.1288 12.6548L12.022 10.8208H12.022ZM1.5117 13.1528C1.55436 13.5483 1.61905 13.9411 1.70652 14.3291C2.00863 15.6693 2.57933 16.9522 3.37208 18.0776C3.55363 18.3354 3.74802 18.5841 3.95211 18.8247L3.5127 16.5674L3.51852 16.5659L2.25149 13.3388L1.5117 13.1528ZM7.00489 17.1299L4.58933 17.5122L5.06394 19.9541C5.46587 20.3054 5.89388 20.6256 6.34428 20.9121C7.03077 21.3478 7.76507 21.7032 8.53273 21.9712L11.4683 21.3295L11.2647 19.8705L7.00494 17.1298L7.00489 17.1299ZM21.1816 17.1533L18.1713 19.0869L16.2026 21.3076L16.4092 21.5962C16.973 21.3363 17.514 21.0269 18.022 20.6718C19.1456 19.8862 20.1128 18.8763 20.8476 17.7201C20.9653 17.5351 21.0759 17.3456 21.1816 17.1533L21.1816 17.1533ZM15.4263 21.731L11.6791 22.1821L10.4619 22.4472C11.7272 22.6347 13.0267 22.5899 14.2734 22.3154C14.7146 22.2182 15.1492 22.0908 15.5742 21.9374L15.4263 21.7309L15.4263 21.731Z" fill="#F3D523"/>
</svg>
