<svg width="24" height="24" viewBox="0 0 24 24" fill="none" xmlns="http://www.w3.org/2000/svg">
    <path
        d="M2.334 10.875H1.5C1.30109 10.875 1.11032 10.796 0.96967 10.6553C0.829018 10.5147 0.75 10.3239 0.75 10.125C0.75 9.92609 0.829018 9.73532 0.96967 9.59467C1.11032 9.45402 1.30109 9.375 1.5 9.375H2.334C2.50421 8.62943 2.92248 7.96372 3.52034 7.48685C4.11821 7.00997 4.86025 6.75018 5.625 6.75H19.875C20.4393 6.74992 20.9831 6.96191 21.3985 7.34393C21.8138 7.72596 22.0705 8.25013 22.1175 8.8125H22.6875C22.8367 8.8125 22.9798 8.87176 23.0852 8.97725C23.1907 9.08274 23.25 9.22582 23.25 9.375V10.875C23.25 11.0242 23.1907 11.1673 23.0852 11.2727C22.9798 11.3782 22.8367 11.4375 22.6875 11.4375H22.1175C22.0705 11.9999 21.8138 12.524 21.3985 12.9061C20.9831 13.2881 20.4393 13.5001 19.875 13.5H19.62C19.613 13.5168 19.6079 13.5345 19.605 13.5525C19.53 14.01 19.2075 14.385 18.78 14.5275C18.675 14.5575 18.6225 14.6625 18.645 14.7675L19.8525 19.1175C19.9293 19.3943 19.9509 19.6834 19.9159 19.9685C19.881 20.2536 19.7903 20.529 19.6489 20.7791C19.5075 21.0291 19.3183 21.2488 19.092 21.4257C18.8657 21.6026 18.6068 21.7332 18.33 21.81C18.0532 21.8868 17.7641 21.9084 17.479 21.8734C17.1939 21.8385 16.9185 21.7478 16.6684 21.6064C16.4184 21.465 16.1987 21.2758 16.0218 21.0495C15.8449 20.8232 15.7143 20.5643 15.6375 20.2875L15.0555 18.195H12.225C11.7075 18.195 11.235 17.8875 11.0325 17.4075L9.8505 14.595H7.6875C7.053 14.595 6.52875 14.115 6.45225 13.5H5.625C4.86025 13.4998 4.11821 13.24 3.52034 12.7632C2.92248 12.2863 2.50421 11.6206 2.334 10.875ZM3.75 10.125C3.75 10.6223 3.94754 11.0992 4.29917 11.4508C4.65081 11.8025 5.12772 12 5.625 12H19.875C20.0739 12 20.2647 11.921 20.4053 11.7803C20.546 11.6397 20.625 11.4489 20.625 11.25V9C20.625 8.80109 20.546 8.61032 20.4053 8.46967C20.2647 8.32902 20.0739 8.25 19.875 8.25H5.625C5.12772 8.25 4.65081 8.44754 4.29917 8.79917C3.94754 9.15081 3.75 9.62772 3.75 10.125ZM10.6455 14.595L11.7075 17.1225C11.7975 17.3325 11.9925 17.4675 12.2175 17.4675H14.853L14.547 16.365H13.0875V16.68C13.0875 16.935 12.885 17.1375 12.63 17.1375C12.375 17.1375 12.1725 16.935 12.1725 16.68V15.42C12.1725 15.165 12.375 14.955 12.63 14.955C12.885 14.955 13.0875 15.1575 13.0875 15.4125V15.7275H14.37L14.115 14.8125C14.0977 14.7501 14.0605 14.6952 14.009 14.6559C13.9576 14.6166 13.8947 14.5953 13.83 14.595H10.6455Z"
        fill="white" />
</svg>
    