<svg width="21" height="18" viewBox="0 0 21 18" fill="none" xmlns="http://www.w3.org/2000/svg">
    <path
        d="M19.16 2.0739C18.1 1.0111 16.6948 0.362436 15.1984 0.245066C13.7019 0.127696 12.2128 0.549362 11 1.4339C9.72769 0.487533 8.14402 0.0584071 6.56795 0.232933C4.99188 0.407459 3.54047 1.17267 2.506 2.37448C1.47154 3.57629 0.930854 5.12542 0.992833 6.70991C1.05481 8.2944 1.71485 9.79657 2.84003 10.9139L9.05003 17.1339C9.57005 17.6457 10.2704 17.9325 11 17.9325C11.7296 17.9325 12.43 17.6457 12.95 17.1339L19.16 10.9139C20.3276 9.73916 20.983 8.15017 20.983 6.4939C20.983 4.83762 20.3276 3.24863 19.16 2.0739ZM17.75 9.5339L11.54 15.7439C11.4694 15.8152 11.3853 15.8719 11.2926 15.9105C11.1999 15.9492 11.1005 15.9691 11 15.9691C10.8996 15.9691 10.8002 15.9492 10.7075 15.9105C10.6148 15.8719 10.5307 15.8152 10.46 15.7439L4.25003 9.5039C3.46579 8.70224 3.02664 7.62536 3.02664 6.5039C3.02664 5.38243 3.46579 4.30555 4.25003 3.5039C5.04919 2.71488 6.127 2.27246 7.25003 2.27246C8.37306 2.27246 9.45088 2.71488 10.25 3.5039C10.343 3.59762 10.4536 3.67202 10.5755 3.72279C10.6973 3.77356 10.828 3.79969 10.96 3.79969C11.092 3.79969 11.2227 3.77356 11.3446 3.72279C11.4665 3.67202 11.5771 3.59762 11.67 3.5039C12.4692 2.71488 13.547 2.27246 14.67 2.27246C15.7931 2.27246 16.8709 2.71488 17.67 3.5039C18.4651 4.29505 18.9186 5.36609 18.9336 6.48758C18.9485 7.60908 18.5237 8.69183 17.75 9.5039V9.5339Z"
        fill="white" />
</svg>
    