<svg width="16" height="16" viewBox="0 0 16 16" fill="none" xmlns="http://www.w3.org/2000/svg">
<path d="M13.4399 3.33328C12.7332 2.62475 11.7964 2.19231 10.7988 2.11406C9.80111 2.03581 8.80837 2.31692 7.99986 2.90661C7.15163 2.27571 6.09585 1.98962 5.04514 2.10597C3.99442 2.22232 3.02682 2.73247 2.33717 3.53367C1.64753 4.33488 1.28707 5.36763 1.32839 6.42396C1.36971 7.48029 1.80974 8.48173 2.55986 9.22661L6.69986 13.3733C7.04654 13.7145 7.51345 13.9057 7.99986 13.9057C8.48627 13.9057 8.95318 13.7145 9.29986 13.3733L13.4399 9.22661C14.2182 8.44346 14.6551 7.38413 14.6551 6.27995C14.6551 5.17577 14.2182 4.11644 13.4399 3.33328ZM12.4999 8.30661L8.35986 12.4466C8.31275 12.4942 8.25668 12.5319 8.19489 12.5577C8.13309 12.5835 8.06681 12.5968 7.99986 12.5968C7.93291 12.5968 7.86662 12.5835 7.80483 12.5577C7.74304 12.5319 7.68697 12.4942 7.63986 12.4466L3.49986 8.28661C2.97703 7.75218 2.68427 7.03426 2.68427 6.28661C2.68427 5.53897 2.97703 4.82105 3.49986 4.28661C4.03263 3.76061 4.75117 3.46566 5.49986 3.46566C6.24854 3.46566 6.96709 3.76061 7.49986 4.28661C7.56183 4.3491 7.63557 4.3987 7.71681 4.43254C7.79805 4.46639 7.88518 4.48381 7.97319 4.48381C8.0612 4.48381 8.14834 4.46639 8.22958 4.43254C8.31082 4.3987 8.38455 4.3491 8.44653 4.28661C8.9793 3.76061 9.69784 3.46566 10.4465 3.46566C11.1952 3.46566 11.9138 3.76061 12.4465 4.28661C12.9765 4.81405 13.2789 5.52807 13.2889 6.27574C13.2989 7.0234 13.0156 7.74524 12.4999 8.28661V8.30661Z" fill="white"/>
</svg>
