<svg width="25" height="25" viewBox="0 0 25 25" fill="none" xmlns="http://www.w3.org/2000/svg">
    <path
        d="M20.5001 8.49952L14.5001 3.23952C13.9501 2.74756 13.238 2.47559 12.5001 2.47559C11.7622 2.47559 11.0501 2.74756 10.5001 3.23952L4.50009 8.49952C4.18246 8.78359 3.92899 9.13207 3.75657 9.52176C3.58414 9.91145 3.49671 10.3334 3.50009 10.7595V19.4995C3.50009 20.2952 3.81617 21.0582 4.37877 21.6208C4.94138 22.1834 5.70445 22.4995 6.50009 22.4995H18.5001C19.2957 22.4995 20.0588 22.1834 20.6214 21.6208C21.184 21.0582 21.5001 20.2952 21.5001 19.4995V10.7495C21.5021 10.3251 21.4139 9.90506 21.2416 9.5172C21.0692 9.12934 20.8165 8.78247 20.5001 8.49952ZM14.5001 20.4995H10.5001V15.4995C10.5001 15.2343 10.6055 14.9799 10.793 14.7924C10.9805 14.6049 11.2349 14.4995 11.5001 14.4995H13.5001C13.7653 14.4995 14.0197 14.6049 14.2072 14.7924C14.3947 14.9799 14.5001 15.2343 14.5001 15.4995V20.4995ZM19.5001 19.4995C19.5001 19.7647 19.3947 20.0191 19.2072 20.2066C19.0197 20.3942 18.7653 20.4995 18.5001 20.4995H16.5001V15.4995C16.5001 14.7039 16.184 13.9408 15.6214 13.3782C15.0588 12.8156 14.2957 12.4995 13.5001 12.4995H11.5001C10.7044 12.4995 9.94138 12.8156 9.37877 13.3782C8.81616 13.9408 8.50009 14.7039 8.50009 15.4995V20.4995H6.50009C6.23488 20.4995 5.98052 20.3942 5.79299 20.2066C5.60545 20.0191 5.50009 19.7647 5.50009 19.4995V10.7495C5.50027 10.6075 5.53069 10.4672 5.58931 10.3379C5.64794 10.2086 5.73343 10.0932 5.8401 9.99952L11.8401 4.74952C12.0226 4.5892 12.2572 4.50078 12.5001 4.50078C12.743 4.50078 12.9776 4.5892 13.1601 4.74952L19.1601 9.99952C19.2668 10.0932 19.3523 10.2086 19.4109 10.3379C19.4695 10.4672 19.4999 10.6075 19.5001 10.7495V19.4995Z"
        fill="#B4B4B4" />
</svg>
    