<svg width="21" height="19" viewBox="0 0 21 19" fill="none" xmlns="http://www.w3.org/2000/svg">
<path d="M18.7463 2.80334C17.7014 1.75576 16.3164 1.11638 14.8413 1.00069C13.3663 0.885005 11.8985 1.30063 10.7031 2.1725C9.44897 1.23969 7.88798 0.816708 6.33447 0.988735C4.78096 1.16076 3.35033 1.91502 2.33068 3.09962C1.31102 4.28422 0.778077 5.81117 0.839169 7.37298C0.90026 8.93479 1.55085 10.4154 2.65992 11.5168L8.78101 17.6477C9.29359 18.1522 9.98393 18.4349 10.7031 18.4349C11.4223 18.4349 12.1126 18.1522 12.6252 17.6477L18.7463 11.5168C19.8971 10.3589 20.5431 8.79262 20.5431 7.16006C20.5431 5.5275 19.8971 3.96126 18.7463 2.80334ZM17.3565 10.1565L11.2354 16.2776C11.1657 16.348 11.0828 16.4038 10.9914 16.4419C10.9001 16.48 10.8021 16.4996 10.7031 16.4996C10.6041 16.4996 10.5061 16.48 10.4147 16.4419C10.3234 16.4038 10.2405 16.348 10.1708 16.2776L4.04973 10.127C3.27672 9.33679 2.84386 8.27533 2.84386 7.16992C2.84386 6.06451 3.27672 5.00304 4.04973 4.21287C4.83745 3.43515 5.89983 2.99907 7.00678 2.99907C8.11373 2.99907 9.17612 3.43515 9.96383 4.21287C10.0555 4.30525 10.1645 4.37858 10.2846 4.42862C10.4047 4.47867 10.5335 4.50443 10.6637 4.50443C10.7938 4.50443 10.9226 4.47867 11.0427 4.42862C11.1629 4.37858 11.2719 4.30525 11.3635 4.21287C12.1512 3.43515 13.2136 2.99907 14.3206 2.99907C15.4275 2.99907 16.4899 3.43515 17.2776 4.21287C18.0612 4.99269 18.5083 6.0484 18.5231 7.15384C18.5378 8.25927 18.119 9.32653 17.3565 10.127V10.1565Z" fill="#6C6226"/>
</svg>
