<svg width="15" height="19" viewBox="0 0 15 19" fill="none" xmlns="http://www.w3.org/2000/svg">
<path fill-rule="evenodd" clip-rule="evenodd" d="M7.5 15C8.88071 15 10 13.8807 10 12.5C10 11.1193 8.88071 10 7.5 10C6.11929 10 5 11.1193 5 12.5C5 13.8807 6.11929 15 7.5 15ZM7.5 13.3333C7.96024 13.3333 8.33333 12.9602 8.33333 12.5C8.33333 12.0398 7.96024 11.6667 7.5 11.6667C7.03976 11.6667 6.66667 12.0398 6.66667 12.5C6.66667 12.9602 7.03976 13.3333 7.5 13.3333Z" fill="#B4B4B4"/>
<path fill-rule="evenodd" clip-rule="evenodd" d="M2.5 6.66667V5C2.5 2.23858 4.73858 0 7.5 0C10.2614 0 12.5 2.23858 12.5 5V6.66667C13.8807 6.66667 15 7.78595 15 9.16667V15.8333C15 17.214 13.8807 18.3333 12.5 18.3333H2.5C1.11929 18.3333 0 17.214 0 15.8333V9.16667C0 7.78595 1.11929 6.66667 2.5 6.66667ZM4.16667 5C4.16667 3.15905 5.65905 1.66667 7.5 1.66667C9.34095 1.66667 10.8333 3.15905 10.8333 5V6.66667H4.16667V5ZM2.5 8.33333C2.03976 8.33333 1.66667 8.70643 1.66667 9.16667V15.8333C1.66667 16.2936 2.03976 16.6667 2.5 16.6667H12.5C12.9602 16.6667 13.3333 16.2936 13.3333 15.8333V9.16667C13.3333 8.70643 12.9602 8.33333 12.5 8.33333H2.5Z" fill="#B4B4B4"/>
</svg>
