<svg width="20" height="20" viewBox="0 0 20 20" fill="none" xmlns="http://www.w3.org/2000/svg">
    <path
        d="M15.8333 1.6665H4.16663C3.50358 1.6665 2.8677 1.9299 2.39886 2.39874C1.93002 2.86758 1.66663 3.50346 1.66663 4.1665V15.8332C1.66663 16.4962 1.93002 17.1321 2.39886 17.6009C2.8677 18.0698 3.50358 18.3332 4.16663 18.3332H15.8333C16.4963 18.3332 17.1322 18.0698 17.6011 17.6009C18.0699 17.1321 18.3333 16.4962 18.3333 15.8332V4.1665C18.3333 3.50346 18.0699 2.86758 17.6011 2.39874C17.1322 1.9299 16.4963 1.6665 15.8333 1.6665ZM8.33329 3.33317H11.6666V5.9415L10.4583 5.10817C10.3222 5.01856 10.1629 4.97081 9.99996 4.97081C9.83704 4.97081 9.67769 5.01856 9.54163 5.10817L8.33329 5.9415V3.33317ZM16.6666 15.8332C16.6666 16.0542 16.5788 16.2661 16.4225 16.4224C16.2663 16.5787 16.0543 16.6665 15.8333 16.6665H4.16663C3.94561 16.6665 3.73365 16.5787 3.57737 16.4224C3.42109 16.2661 3.33329 16.0542 3.33329 15.8332V4.1665C3.33329 3.94549 3.42109 3.73353 3.57737 3.57725C3.73365 3.42097 3.94561 3.33317 4.16663 3.33317H6.66663V7.49984C6.66703 7.65059 6.70832 7.79841 6.7861 7.92755C6.86387 8.05669 6.97523 8.16232 7.10829 8.23317C7.2386 8.30008 7.38425 8.33146 7.53055 8.32414C7.67685 8.31683 7.81864 8.27108 7.94163 8.1915L9.99996 6.83317L12.0416 8.1915C12.167 8.27404 12.3123 8.32121 12.4622 8.32802C12.6121 8.33482 12.7611 8.30102 12.8934 8.23018C13.0257 8.15933 13.1364 8.05408 13.2138 7.92553C13.2912 7.79698 13.3325 7.64991 13.3333 7.49984V3.33317H15.8333C16.0543 3.33317 16.2663 3.42097 16.4225 3.57725C16.5788 3.73353 16.6666 3.94549 16.6666 4.1665V15.8332Z"
        fill="white" />
</svg>
    