<svg width="25" height="25" viewBox="0 0 25 25" fill="none" xmlns="http://www.w3.org/2000/svg">
    <path
        d="M9 19.5C8.70333 19.5 8.41332 19.588 8.16664 19.7528C7.91997 19.9176 7.72771 20.1519 7.61418 20.426C7.50065 20.7001 7.47094 21.0017 7.52882 21.2926C7.5867 21.5836 7.72956 21.8509 7.93934 22.0607C8.14912 22.2704 8.41639 22.4133 8.70736 22.4712C8.99834 22.5291 9.29994 22.4993 9.57403 22.3858C9.84811 22.2723 10.0824 22.08 10.2472 21.8334C10.412 21.5867 10.5 21.2967 10.5 21C10.5 20.6022 10.342 20.2206 10.0607 19.9393C9.77936 19.658 9.39782 19.5 9 19.5ZM19.5 16.5H7.5C7.23478 16.5 6.98043 16.3946 6.79289 16.2071C6.60536 16.0196 6.5 15.7652 6.5 15.5C6.5 15.2348 6.60536 14.9804 6.79289 14.7929C6.98043 14.6054 7.23478 14.5 7.5 14.5H15.991C16.6425 14.498 17.2758 14.2848 17.7959 13.8925C18.3161 13.5002 18.695 12.9499 18.876 12.324L20.461 6.774C20.5034 6.62526 20.5107 6.46872 20.4823 6.31669C20.454 6.16465 20.3907 6.02126 20.2976 5.8978C20.2045 5.77433 20.084 5.67414 19.9456 5.60512C19.8072 5.5361 19.6547 5.50011 19.5 5.5H7.24C7.03281 4.91702 6.65083 4.41213 6.14616 4.05421C5.64149 3.69629 5.0387 3.50275 4.42 3.5H3.5C3.23478 3.5 2.98043 3.60536 2.79289 3.79289C2.60536 3.98043 2.5 4.23478 2.5 4.5C2.5 4.76522 2.60536 5.01957 2.79289 5.20711C2.98043 5.39464 3.23478 5.5 3.5 5.5H4.421C4.63815 5.50069 4.84924 5.5717 5.02266 5.7024C5.19608 5.83309 5.3225 6.01644 5.383 6.225L5.538 6.77V6.775L7.179 12.517C6.41517 12.5987 5.71176 12.9702 5.21375 13.5551C4.71574 14.14 4.46107 14.8936 4.50222 15.6607C4.54338 16.4278 4.87722 17.1499 5.43496 17.6781C5.99269 18.2064 6.73181 18.5005 7.5 18.5H19.5C19.7652 18.5 20.0196 18.3946 20.2071 18.2071C20.3946 18.0196 20.5 17.7652 20.5 17.5C20.5 17.2348 20.3946 16.9804 20.2071 16.7929C20.0196 16.6054 19.7652 16.5 19.5 16.5ZM18.174 7.5L16.954 11.774C16.8936 11.9829 16.7671 12.1666 16.5935 12.2975C16.4199 12.4284 16.2085 12.4995 15.991 12.5H9.254L8.999 11.608L7.826 7.5H18.174ZM17 19.5C16.7033 19.5 16.4133 19.588 16.1666 19.7528C15.92 19.9176 15.7277 20.1519 15.6142 20.426C15.5006 20.7001 15.4709 21.0017 15.5288 21.2926C15.5867 21.5836 15.7296 21.8509 15.9393 22.0607C16.1491 22.2704 16.4164 22.4133 16.7074 22.4712C16.9983 22.5291 17.2999 22.4993 17.574 22.3858C17.8481 22.2723 18.0824 22.08 18.2472 21.8334C18.412 21.5867 18.5 21.2967 18.5 21C18.5 20.6022 18.342 20.2206 18.0607 19.9393C17.7794 19.658 17.3978 19.5 17 19.5Z"
        fill="#B4B4B4" />
</svg>
    