<svg width="24" height="24" viewBox="0 0 24 24" fill="none" xmlns="http://www.w3.org/2000/svg">
<path d="M2.075 19.45V19.125C2.075 18.3417 2.08767 17.6543 2.113 17.063C2.13833 16.4717 2.17567 15.9423 2.225 15.475H10.075C11.225 15.475 12.2043 15.0667 13.013 14.25C13.8217 13.4333 14.2257 12.4333 14.225 11.25C14.225 10.4 13.9877 9.62932 13.513 8.93799C13.0383 8.24665 12.4007 7.73399 11.6 7.39999L8.25 6.07499C9.15 5.57499 10.096 5.19599 11.088 4.93799C12.08 4.67999 13.109 4.55065 14.175 4.54999C16.3083 4.54999 18.1333 5.27099 19.65 6.71299C21.1667 8.15499 21.925 9.91732 21.925 12C21.925 14.0833 21.2043 15.846 19.763 17.288C18.3217 18.73 16.559 19.4507 14.475 19.45H2.075ZM2.55 13.5C2.88333 12.3167 3.375 11.2043 4.025 10.163C4.675 9.12165 5.45 8.20065 6.35 7.39999L10.85 9.22499C11.2833 9.40832 11.625 9.68332 11.875 10.05C12.125 10.4167 12.25 10.8167 12.25 11.25C12.25 11.8833 12.0377 12.4167 11.613 12.85C11.1883 13.2833 10.659 13.5 10.025 13.5H2.55Z" fill="#F3D523"/>
</svg>
