<svg width="24" height="24" viewBox="0 0 24 24" fill="none" xmlns="http://www.w3.org/2000/svg">
<g id="uil:comment-message">
<path id="Vector" d="M12.2782 2.25C10.965 2.25 9.66461 2.50866 8.45135 3.0112C7.2381 3.51375 6.1357 4.25035 5.20712 5.17893C3.33175 7.0543 2.27819 9.59784 2.27819 12.25C2.26944 14.5591 3.06898 16.7985 4.53819 18.58L2.53819 20.58C2.39943 20.7206 2.30543 20.8992 2.26806 21.0932C2.23068 21.2872 2.25161 21.4879 2.32819 21.67C2.41124 21.8499 2.54589 22.0011 2.71503 22.1044C2.88418 22.2077 3.08019 22.2583 3.27819 22.25H12.2782C14.9304 22.25 17.4739 21.1964 19.3493 19.3211C21.2246 17.4457 22.2782 14.9022 22.2782 12.25C22.2782 9.59784 21.2246 7.0543 19.3493 5.17893C17.4739 3.30357 14.9304 2.25 12.2782 2.25ZM12.2782 20.25H5.68819L6.61819 19.32C6.80444 19.1326 6.90898 18.8792 6.90898 18.615C6.90898 18.3508 6.80444 18.0974 6.61819 17.91C5.30877 16.602 4.49336 14.8805 4.31088 13.0388C4.12839 11.197 4.59013 9.34901 5.61741 7.80952C6.6447 6.27004 8.17398 5.13436 9.9447 4.59597C11.7154 4.05759 13.618 4.1498 15.3284 4.85691C17.0388 5.56402 18.451 6.84227 19.3246 8.47389C20.1982 10.1055 20.4791 11.9895 20.1193 13.805C19.7596 15.6205 18.7815 17.255 17.3517 18.4302C15.922 19.6054 14.1289 20.2485 12.2782 20.25Z" fill="white"/>
</g>
</svg>
