<svg width="24" height="24" viewBox="0 0 24 24" fill="none" xmlns="http://www.w3.org/2000/svg">
<g clip-path="url(#clip0_3534_3332)">
<path fill-rule="evenodd" clip-rule="evenodd" d="M5.707 3.8792C6.26948 3.31655 7.03242 3.00037 7.828 3.0002C8.618 3.0002 9.776 2.7802 10.13 3.7112C10.2743 4.09024 10.5305 4.41647 10.8644 4.64665C11.1984 4.87683 11.5944 5.00009 12 5.00009C12.4056 5.00009 12.8016 4.87683 13.1356 4.64665C13.4695 4.41647 13.7257 4.09024 13.87 3.7112C14.224 2.7812 15.383 3.0012 16.172 3.0012C16.9671 3.00137 17.7296 3.31716 18.292 3.8792L22 7.5862C22.3749 7.96125 22.5856 8.46987 22.5856 9.0002C22.5856 9.53053 22.3749 10.0391 22 10.4142L20.522 11.8922C20.002 12.4122 19.276 12.5812 18.622 12.4182L18.894 17.8502C18.9143 18.2563 18.8519 18.6622 18.7105 19.0434C18.5691 19.4246 18.3517 19.7731 18.0715 20.0677C17.7913 20.3623 17.4542 20.5969 17.0805 20.7572C16.7069 20.9175 16.3046 21.0002 15.898 21.0002H8.102C7.69543 21.0002 7.2931 20.9175 6.91946 20.7572C6.54582 20.5969 6.20866 20.3623 5.92846 20.0677C5.64826 19.7731 5.43086 19.4246 5.28948 19.0434C5.1481 18.6622 5.08567 18.2563 5.106 17.8502L5.378 12.4182C5.04286 12.5025 4.69158 12.4984 4.35853 12.4061C4.02548 12.3139 3.72207 12.1369 3.478 11.8922L2 10.4142C1.62506 10.0391 1.41443 9.53053 1.41443 9.0002C1.41443 8.46987 1.62506 7.96125 2 7.5862L5.707 3.8792Z" fill="#F3D523"/>
</g>
<defs>
<clipPath id="clip0_3534_3332">
<rect width="24" height="24" fill="white"/>
</clipPath>
</defs>
</svg>
