<svg width="23" height="18" viewBox="0 0 23 18" fill="none" xmlns="http://www.w3.org/2000/svg">
<path d="M12.1215 9.04153C12.655 8.57967 13.083 8.00842 13.3763 7.36656C13.6697 6.72469 13.8215 6.02724 13.8215 5.32153C13.8215 3.99545 13.2947 2.72368 12.357 1.786C11.4193 0.848318 10.1475 0.321533 8.82146 0.321533C7.49537 0.321533 6.22361 0.848318 5.28592 1.786C4.34824 2.72368 3.82146 3.99545 3.82146 5.32153C3.82145 6.02724 3.97326 6.72469 4.26658 7.36656C4.55991 8.00842 4.98788 8.57967 5.52146 9.04153C4.1216 9.67542 2.93392 10.6991 2.10044 11.9901C1.26695 13.2811 0.822929 14.7848 0.821457 16.3215C0.821457 16.5868 0.926814 16.8411 1.11435 17.0286C1.30189 17.2162 1.55624 17.3215 1.82146 17.3215C2.08667 17.3215 2.34103 17.2162 2.52856 17.0286C2.7161 16.8411 2.82146 16.5868 2.82146 16.3215C2.82146 14.7302 3.4536 13.2041 4.57882 12.0789C5.70403 10.9537 7.23016 10.3215 8.82146 10.3215C10.4128 10.3215 11.9389 10.9537 13.0641 12.0789C14.1893 13.2041 14.8215 14.7302 14.8215 16.3215C14.8215 16.5868 14.9268 16.8411 15.1144 17.0286C15.3019 17.2162 15.5562 17.3215 15.8215 17.3215C16.0867 17.3215 16.341 17.2162 16.5286 17.0286C16.7161 16.8411 16.8215 16.5868 16.8215 16.3215C16.82 14.7848 16.376 13.2811 15.5425 11.9901C14.709 10.6991 13.5213 9.67542 12.1215 9.04153ZM8.82146 8.32153C8.22811 8.32153 7.64809 8.14559 7.15475 7.81594C6.6614 7.4863 6.27688 7.01776 6.04982 6.46958C5.82276 5.92141 5.76335 5.31821 5.8791 4.73626C5.99486 4.15432 6.28058 3.61977 6.70014 3.20021C7.11969 2.78066 7.65424 2.49493 8.23619 2.37918C8.81813 2.26342 9.42133 2.32283 9.96951 2.5499C10.5177 2.77696 10.9862 3.16148 11.3159 3.65482C11.6455 4.14817 11.8215 4.72819 11.8215 5.32153C11.8215 6.11718 11.5054 6.88024 10.9428 7.44285C10.3802 8.00546 9.61711 8.32153 8.82146 8.32153ZM18.5615 8.64153C19.2014 7.92086 19.6195 7.03059 19.7653 6.07787C19.9111 5.12516 19.7784 4.15061 19.3832 3.27153C18.9881 2.39246 18.3472 1.64633 17.5379 1.12296C16.7286 0.599583 15.7853 0.321276 14.8215 0.321533C14.5562 0.321533 14.3019 0.42689 14.1144 0.614427C13.9268 0.801963 13.8215 1.05632 13.8215 1.32153C13.8215 1.58675 13.9268 1.8411 14.1144 2.02864C14.3019 2.21618 14.5562 2.32153 14.8215 2.32153C15.6171 2.32153 16.3802 2.6376 16.9428 3.20021C17.5054 3.76282 17.8215 4.52588 17.8215 5.32153C17.82 5.84677 17.6808 6.36244 17.4175 6.81695C17.1543 7.27147 16.7763 7.64891 16.3215 7.91153C16.1732 7.99705 16.0494 8.1192 15.9618 8.26627C15.8743 8.41335 15.8259 8.58043 15.8215 8.75153C15.8173 8.9213 15.8564 9.08933 15.9351 9.23979C16.0138 9.39025 16.1296 9.51819 16.2715 9.61153L16.6615 9.87153L16.7915 9.94153C17.9969 10.5133 19.0138 11.4175 19.7224 12.5478C20.4311 13.6782 20.802 14.9875 20.7915 16.3215C20.7915 16.5868 20.8968 16.8411 21.0844 17.0286C21.2719 17.2162 21.5262 17.3215 21.7915 17.3215C22.0567 17.3215 22.311 17.2162 22.4986 17.0286C22.6861 16.8411 22.7915 16.5868 22.7915 16.3215C22.7996 14.787 22.4153 13.2758 21.6749 11.9316C20.9346 10.5874 19.8628 9.45485 18.5615 8.64153Z" fill="#6C6226"/>
</svg>
