<svg width="24" height="24" viewBox="0 0 24 24" fill="none" xmlns="http://www.w3.org/2000/svg">
<g clip-path="url(#clip0_2851_4036)">
<path d="M9.75002 2.25C9.75002 1.65326 9.98708 1.08097 10.409 0.659009C10.831 0.237052 11.4033 -3.94881e-07 12 -3.94881e-07C12.5968 -3.94881e-07 13.1691 0.237052 13.591 0.659009C14.013 1.08097 14.25 1.65326 14.25 2.25C14.25 2.84674 14.013 3.41903 13.591 3.84099C13.1691 4.26295 12.5968 4.5 12 4.5C11.4033 4.5 10.831 4.26295 10.409 3.84099C9.98708 3.41903 9.75002 2.84674 9.75002 2.25ZM11.625 16.5V22.5C11.625 23.3297 10.9547 24 10.125 24C9.29534 24 8.62502 23.3297 8.62502 22.5V12.0422L7.2844 14.2687C6.85784 14.9766 5.9344 15.2062 5.22659 14.7797C4.51877 14.3531 4.28909 13.4297 4.71565 12.7219L7.44846 8.175C8.26409 6.82031 9.72659 5.99062 11.3063 5.99062H12.6985C14.2781 5.99062 15.7406 6.82031 16.5563 8.175L19.2891 12.7219C19.7156 13.4297 19.486 14.3531 18.7781 14.7797C18.0703 15.2062 17.1469 14.9766 16.7203 14.2687L15.375 12.0422V22.5C15.375 23.3297 14.7047 24 13.875 24C13.0453 24 12.375 23.3297 12.375 22.5V16.5H11.625ZM0.328149 0.328125C0.768774 -0.107813 1.48127 -0.107813 1.9219 0.328125L5.6719 4.07812C6.11252 4.51875 6.11252 5.23125 5.6719 5.66719C5.23127 6.10312 4.51877 6.10781 4.08284 5.66719L0.328149 1.92187C-0.107788 1.48125 -0.107788 0.76875 0.328149 0.328125ZM22.0781 0.328125C22.5188 -0.1125 23.2313 -0.1125 23.6672 0.328125C24.1031 0.76875 24.1078 1.48125 23.6672 1.91719L19.9172 5.66719C19.4766 6.10781 18.7641 6.10781 18.3281 5.66719C17.8922 5.22656 17.8875 4.51406 18.3281 4.07812L22.0781 0.328125ZM0.328149 23.6719C-0.112476 23.2312 -0.112476 22.5187 0.328149 22.0828L4.07815 18.3328C4.51877 17.8922 5.23127 17.8922 5.66721 18.3328C6.10315 18.7734 6.10784 19.4859 5.66721 19.9219L1.9219 23.6719C1.48127 24.1125 0.768774 24.1125 0.332837 23.6719H0.328149ZM22.0781 23.6719L18.3281 19.9219C17.8875 19.4812 17.8875 18.7687 18.3281 18.3328C18.7688 17.8969 19.4813 17.8922 19.9172 18.3328L23.6672 22.0828C24.1078 22.5234 24.1078 23.2359 23.6672 23.6719C23.2266 24.1078 22.5141 24.1125 22.0781 23.6719Z" fill="#F3D523"/>
</g>
<defs>
<clipPath id="clip0_2851_4036">
<rect width="24" height="24" fill="white"/>
</clipPath>
</defs>
</svg>
