<svg width="24" height="24" viewBox="0 0 24 24" fill="none" xmlns="http://www.w3.org/2000/svg">
    <path
        d="M17.8448 6.15507C17.8448 6.15507 17.4118 8.40006 14.9048 10.9061C12.3998 13.4121 10.1548 13.8441 10.1548 13.8441M20.4078 16.4071C19.9029 16.9121 19.3035 17.3127 18.6438 17.586C17.984 17.8593 17.2769 18 16.5628 18C15.8487 18 15.1416 17.8593 14.4819 17.586C13.8221 17.3127 13.2227 16.9121 12.7178 16.4071L7.59181 11.2811C7.08694 10.7761 6.68647 10.1767 6.41327 9.517C6.14006 8.8573 5.99947 8.15025 5.99951 7.43621C5.99961 5.99415 6.57255 4.61119 7.59231 3.59157C8.61207 2.57194 9.9951 1.99917 11.4372 1.99927C12.8792 1.99936 14.2622 2.57231 15.2818 3.59207L20.4068 8.71807C20.9118 9.22295 21.3124 9.82238 21.5857 10.4821C21.8591 11.1418 21.9997 11.849 21.9997 12.5631C21.9997 13.2772 21.8591 13.9843 21.5857 14.644C21.3124 15.3037 20.9118 15.9032 20.4068 16.4081L20.4078 16.4071Z"
        stroke="white" stroke-width="1.5" />
    <path d="M14.5 6.5L13 5" stroke="white" stroke-width="1.5" stroke-linecap="round" />
    <path
        d="M6.7299 10.135C5.67501 10.3637 4.70135 10.8728 3.91153 11.6085C3.12172 12.3442 2.54501 13.2794 2.24218 14.3155C1.93936 15.3515 1.92163 16.4501 2.19087 17.4954C2.46011 18.5407 3.00635 19.494 3.77201 20.2548C4.53767 21.0156 5.4944 21.5558 6.54137 21.8185C7.58833 22.0811 8.68676 22.0564 9.72088 21.7471C10.755 21.4377 11.6865 20.8551 12.4172 20.0606C13.148 19.2662 13.6509 18.2893 13.8729 17.233"
        stroke="white" stroke-width="1.5" />
</svg>
    