<svg width="32" height="32" viewBox="0 0 32 32" fill="none" xmlns="http://www.w3.org/2000/svg">
    <path
        d="M29.68 27.1429C28.1436 25.3121 27.3114 22.9929 27.3333 20.6029V10.6562C27.3333 6.24558 24.3427 2.65625 20.6667 2.65625H8.66667C4.99067 2.65625 2 6.24558 2 10.6562C2 15.0669 4.99067 18.6562 8.66667 18.6562H12.6667V20.6029C12.6449 23.6288 13.704 26.5631 15.6533 28.8776C15.7786 29.0239 15.934 29.1413 16.1089 29.2219C16.2838 29.3024 16.4741 29.3442 16.6667 29.3442H28.6667C28.9218 29.3445 29.1716 29.2715 29.3865 29.134C29.6014 28.9965 29.7724 28.8002 29.8791 28.5685C29.9858 28.3367 30.0237 28.0792 29.9884 27.8265C29.9531 27.5738 29.8461 27.3366 29.68 27.1429ZM8.66667 15.9909C6.46133 15.9909 4.66667 13.5976 4.66667 10.6576C4.66667 7.71758 6.46133 5.32425 8.66667 5.32425C10.872 5.32425 12.6667 7.71625 12.6667 10.6576C12.6667 13.5989 10.872 15.9909 8.66667 15.9909ZM17.3053 26.6763C16.0089 24.9181 15.3171 22.7873 15.3333 20.6029V11.2696C15.3333 11.2322 15.3147 11.2002 15.312 11.1629C15.3213 10.9949 15.3333 10.8282 15.3333 10.6562C15.3511 8.74062 14.7507 6.87032 13.6213 5.32292H20.6667C22.872 5.32292 24.6667 7.71625 24.6667 10.6562V20.6029C24.6598 22.7188 25.1716 24.804 26.1573 26.6763H17.3053ZM8.66667 8.99092C8.27088 9.03979 7.90989 9.24146 7.66077 9.55286C7.41165 9.86427 7.29414 10.2607 7.33333 10.6576C7.29414 11.0544 7.41165 11.4509 7.66077 11.7623C7.90989 12.0737 8.27088 12.2754 8.66667 12.3243C9.06245 12.2754 9.42344 12.0737 9.67257 11.7623C9.92169 11.4509 10.0392 11.0544 10 10.6576C10.0392 10.2607 9.92169 9.86427 9.67257 9.55286C9.42344 9.24146 9.06245 9.03979 8.66667 8.99092Z"
        fill="white" />
</svg>
    