<svg width="24" height="24" viewBox="0 0 24 24" fill="none" xmlns="http://www.w3.org/2000/svg">
    <path
        d="M8.5 9L6.5 12M6.5 12L4.5 15M6.5 12L4.5 9M6.5 12L8.5 15M14 9L12 12M12 12L10 15M12 12L10 9M12 12L14 15M19.5 9L17.5 12M17.5 12L15.5 15M17.5 12L15.5 9M17.5 12L19.5 15"
        stroke="white" stroke-width="1.5" stroke-linecap="round" />
    <path
        d="M2 12C2 7.286 2 4.929 3.464 3.464C4.93 2 7.286 2 12 2C16.714 2 19.071 2 20.535 3.464C22 4.93 22 7.286 22 12C22 16.714 22 19.071 20.535 20.535C19.072 22 16.714 22 12 22C7.286 22 4.929 22 3.464 20.535C2 19.072 2 16.714 2 12Z"
        stroke="white" stroke-width="1.5" />
</svg>
    