<svg width="24" height="25" viewBox="0 0 24 25" fill="none" xmlns="http://www.w3.org/2000/svg">
    <path d="M14.36 14.73C13.6915 15.269 12.8587 15.5629 12 15.5629C11.1413 15.5629 10.3085 15.269 9.64 14.73C9.43579 14.5603 9.17251 14.4786 8.90808 14.503C8.64365 14.5274 8.39974 14.6558 8.23 14.86C8.06027 15.0642 7.9786 15.3275 8.00298 15.5919C8.02736 15.8563 8.15579 16.1003 8.36 16.27C9.38134 17.1226 10.6696 17.5896 12 17.5896C13.3304 17.5896 14.6187 17.1226 15.64 16.27C15.8442 16.1003 15.9726 15.8563 15.997 15.5919C16.0214 15.3275 15.9397 15.0642 15.77 14.86C15.686 14.7589 15.5828 14.6753 15.4665 14.6141C15.3501 14.5528 15.2229 14.5151 15.0919 14.503C14.8275 14.4786 14.5642 14.5603 14.36 14.73ZM9 11.5C9.19779 11.5 9.39113 11.4414 9.55557 11.3315C9.72002 11.2216 9.8482 11.0654 9.92388 10.8827C9.99957 10.7 10.0194 10.4989 9.98079 10.3049C9.9422 10.1109 9.84696 9.93275 9.70711 9.79289C9.56726 9.65304 9.38908 9.5578 9.19509 9.51921C9.00111 9.48063 8.80005 9.50043 8.61732 9.57612C8.43459 9.65181 8.27842 9.77998 8.16853 9.94443C8.05865 10.1089 8 10.3022 8 10.5C8 10.7652 8.10536 11.0196 8.2929 11.2071C8.48043 11.3946 8.73479 11.5 9 11.5ZM15 9.5C14.8022 9.5 14.6089 9.55865 14.4444 9.66853C14.28 9.77841 14.1518 9.93459 14.0761 10.1173C14.0004 10.3 13.9806 10.5011 14.0192 10.6951C14.0578 10.8891 14.153 11.0673 14.2929 11.2071C14.4328 11.347 14.6109 11.4422 14.8049 11.4808C14.9989 11.5194 15.2 11.4996 15.3827 11.4239C15.5654 11.3482 15.7216 11.22 15.8315 11.0556C15.9414 10.8911 16 10.6978 16 10.5C16 10.2348 15.8946 9.98043 15.7071 9.79289C15.5196 9.60536 15.2652 9.5 15 9.5ZM12 2.5C10.0222 2.5 8.08879 3.08649 6.4443 4.1853C4.79981 5.28412 3.51809 6.8459 2.76121 8.67317C2.00433 10.5004 1.8063 12.5111 2.19215 14.4509C2.578 16.3907 3.53041 18.1725 4.92894 19.5711C6.32746 20.9696 8.10929 21.922 10.0491 22.3079C11.9889 22.6937 13.9996 22.4957 15.8268 21.7388C17.6541 20.9819 19.2159 19.7002 20.3147 18.0557C21.4135 16.4112 22 14.4778 22 12.5C22 11.1868 21.7413 9.88642 21.2388 8.67317C20.7363 7.45991 19.9997 6.35752 19.0711 5.42893C18.1425 4.50035 17.0401 3.76375 15.8268 3.2612C14.6136 2.75866 13.3132 2.5 12 2.5ZM12 20.5C10.4178 20.5 8.87104 20.0308 7.55544 19.1518C6.23985 18.2727 5.21447 17.0233 4.60897 15.5615C4.00347 14.0997 3.84504 12.4911 4.15372 10.9393C4.4624 9.38743 5.22433 7.96197 6.34315 6.84315C7.46197 5.72433 8.88743 4.9624 10.4393 4.65372C11.9911 4.34504 13.5997 4.50346 15.0615 5.10896C16.5233 5.71447 17.7727 6.73984 18.6518 8.05544C19.5308 9.37103 20 10.9177 20 12.5C20 14.6217 19.1572 16.6566 17.6569 18.1569C16.1566 19.6571 14.1217 20.5 12 20.5Z" fill="#B4B4B4"/>
    </svg>
    