<svg width="16" height="4" viewBox="0 0 16 4" fill="none" xmlns="http://www.w3.org/2000/svg">
<path d="M8 0.333984C7.67037 0.333984 7.34813 0.431733 7.07405 0.614868C6.79997 0.798004 6.58635 1.0583 6.4602 1.36285C6.33406 1.66739 6.30105 2.0025 6.36536 2.3258C6.42967 2.6491 6.5884 2.94607 6.82149 3.17916C7.05458 3.41225 7.35155 3.57098 7.67485 3.63529C7.99815 3.6996 8.33326 3.6666 8.63781 3.54045C8.94235 3.4143 9.20265 3.20068 9.38578 2.9266C9.56892 2.65252 9.66667 2.33029 9.66667 2.00065C9.66667 1.55862 9.49107 1.1347 9.17851 0.82214C8.86595 0.509579 8.44203 0.333984 8 0.333984ZM2.16667 0.333984C1.83703 0.333984 1.5148 0.431733 1.24072 0.614868C0.966635 0.798004 0.753014 1.0583 0.626868 1.36285C0.500722 1.66739 0.467717 2.0025 0.532025 2.3258C0.596334 2.6491 0.755068 2.94607 0.988156 3.17916C1.22124 3.41225 1.51822 3.57098 1.84152 3.63529C2.16482 3.6996 2.49993 3.6666 2.80447 3.54045C3.10902 3.4143 3.36931 3.20068 3.55245 2.9266C3.73559 2.65252 3.83333 2.33029 3.83333 2.00065C3.83333 1.55862 3.65774 1.1347 3.34518 0.82214C3.03262 0.509579 2.60869 0.333984 2.16667 0.333984ZM13.8333 0.333984C13.5037 0.333984 13.1815 0.431733 12.9074 0.614868C12.6333 0.798004 12.4197 1.0583 12.2935 1.36285C12.1674 1.66739 12.1344 2.0025 12.1987 2.3258C12.263 2.6491 12.4217 2.94607 12.6548 3.17916C12.8879 3.41225 13.1849 3.57098 13.5082 3.63529C13.8315 3.6996 14.1666 3.6666 14.4711 3.54045C14.7757 3.4143 15.036 3.20068 15.2191 2.9266C15.4023 2.65252 15.5 2.33029 15.5 2.00065C15.5 1.55862 15.3244 1.1347 15.0118 0.82214C14.6993 0.509579 14.2754 0.333984 13.8333 0.333984Z" fill="white"/>
</svg>
