<svg width="39" height="13" viewBox="0 0 39 13" fill="none" xmlns="http://www.w3.org/2000/svg">
    <path
        d="M4.431 10.21C3.773 10.21 3.13133 10.119 2.506 9.937C1.88067 9.75033 1.35333 9.48433 0.924 9.139L1.582 8.11C1.82467 8.31067 2.1 8.481 2.408 8.621C2.716 8.761 3.04267 8.86833 3.388 8.943C3.73333 9.01767 4.08333 9.055 4.438 9.055C5.13333 9.055 5.691 8.91967 6.111 8.649C6.53567 8.37833 6.748 7.98167 6.748 7.459C6.748 7.07633 6.60567 6.752 6.321 6.486C6.041 6.22 5.516 5.97733 4.746 5.758L3.682 5.443C2.786 5.18167 2.13033 4.83867 1.715 4.414C1.29967 3.98933 1.092 3.45733 1.092 2.818C1.092 2.38867 1.17833 2.00133 1.351 1.656C1.52367 1.31067 1.76633 1.01433 2.079 0.767C2.39167 0.515 2.76033 0.323666 3.185 0.193C3.61433 0.0576663 4.08333 -0.0100005 4.592 -0.0100005C5.222 -0.0100005 5.80767 0.0833328 6.349 0.269999C6.895 0.451999 7.34533 0.696999 7.7 1.005L7.021 1.992C6.811 1.81467 6.57067 1.663 6.3 1.537C6.02933 1.40633 5.74 1.30833 5.432 1.243C5.124 1.173 4.81133 1.138 4.494 1.138C4.06933 1.138 3.69367 1.201 3.367 1.327C3.045 1.44833 2.793 1.63033 2.611 1.873C2.43367 2.111 2.345 2.40033 2.345 2.741C2.345 2.98833 2.40333 3.20533 2.52 3.392C2.63667 3.574 2.83967 3.742 3.129 3.896C3.41833 4.05 3.81733 4.20167 4.326 4.351L5.46 4.687C6.33267 4.94367 6.97433 5.282 7.385 5.702C7.79567 6.11733 8.001 6.66333 8.001 7.34C8.001 7.90933 7.861 8.411 7.581 8.845C7.30567 9.27433 6.902 9.61033 6.37 9.853C5.838 10.091 5.19167 10.21 4.431 10.21ZM9.84933 12.94V3.14H11.0323V4.169C11.317 3.805 11.674 3.50867 12.1033 3.28C12.5373 3.04667 13.0833 2.93 13.7413 2.93C14.4227 2.93 15.0223 3.091 15.5403 3.413C16.0583 3.73033 16.462 4.16433 16.7513 4.715C17.0453 5.26567 17.1923 5.884 17.1923 6.57C17.1923 7.06933 17.1083 7.54067 16.9403 7.984C16.777 8.42267 16.5413 8.81 16.2333 9.146C15.9253 9.47733 15.559 9.73867 15.1343 9.93C14.7143 10.1167 14.2453 10.21 13.7273 10.21C13.1487 10.21 12.6423 10.1027 12.2083 9.888C11.779 9.66867 11.4197 9.38167 11.1303 9.027V12.94H9.84933ZM13.5103 9.048C13.9723 9.048 14.3807 8.94767 14.7353 8.747C15.0947 8.54167 15.3747 8.25467 15.5753 7.886C15.7807 7.51267 15.8833 7.074 15.8833 6.57C15.8833 6.06133 15.7807 5.62267 15.5753 5.254C15.3747 4.88067 15.0947 4.59367 14.7353 4.393C14.3807 4.19233 13.9723 4.092 13.5103 4.092C13.0483 4.092 12.6377 4.19233 12.2783 4.393C11.9237 4.59367 11.6437 4.88067 11.4383 5.254C11.233 5.62267 11.1303 6.06133 11.1303 6.57C11.1303 7.074 11.233 7.51267 11.4383 7.886C11.6437 8.25467 11.9237 8.54167 12.2783 8.747C12.6377 8.94767 13.0483 9.048 13.5103 9.048ZM21.7918 10.21C21.1011 10.21 20.4898 10.049 19.9578 9.727C19.4258 9.405 19.0104 8.971 18.7118 8.425C18.4131 7.87433 18.2638 7.256 18.2638 6.57C18.2638 6.05667 18.3501 5.57833 18.5228 5.135C18.6954 4.69167 18.9381 4.30667 19.2508 3.98C19.5634 3.64867 19.9344 3.392 20.3638 3.21C20.7978 3.02333 21.2738 2.93 21.7918 2.93C22.4824 2.93 23.0564 3.07467 23.5138 3.364C23.9711 3.65333 24.3281 4.022 24.5848 4.47L24.3958 4.75V3.14H25.5718V10H24.3958V8.39L24.5848 8.663C24.3281 9.111 23.9711 9.482 23.5138 9.776C23.0564 10.0653 22.4824 10.21 21.7918 10.21ZM21.9318 9.048C22.3891 9.048 22.7951 8.94767 23.1498 8.747C23.5044 8.54167 23.7821 8.25467 23.9828 7.886C24.1881 7.51267 24.2908 7.074 24.2908 6.57C24.2908 6.06133 24.1881 5.62267 23.9828 5.254C23.7821 4.88067 23.5044 4.59367 23.1498 4.393C22.7951 4.19233 22.3891 4.092 21.9318 4.092C21.4744 4.092 21.0684 4.19233 20.7138 4.393C20.3591 4.59367 20.0791 4.88067 19.8738 5.254C19.6684 5.62267 19.5658 6.06133 19.5658 6.57C19.5658 7.074 19.6684 7.51267 19.8738 7.886C20.0791 8.25467 20.3591 8.54167 20.7138 8.747C21.0684 8.94767 21.4744 9.048 21.9318 9.048ZM27.8005 10V3.14H29.0885V4.113C29.2798 3.833 29.4968 3.60667 29.7395 3.434C29.9868 3.26133 30.2458 3.13533 30.5165 3.056C30.7918 2.972 31.0695 2.93 31.3495 2.93C31.9282 2.93 32.4042 3.056 32.7775 3.308C33.1555 3.56 33.4238 3.87733 33.5825 4.26C33.9465 3.73733 34.3548 3.385 34.8075 3.203C35.2602 3.021 35.7058 2.93 36.1445 2.93C36.7698 2.93 37.2715 3.056 37.6495 3.308C38.0275 3.55533 38.3005 3.87267 38.4685 4.26C38.6412 4.64733 38.7275 5.044 38.7275 5.45V10H37.4395V5.828C37.4395 5.31933 37.2995 4.90867 37.0195 4.596C36.7395 4.28333 36.3288 4.127 35.7875 4.127C35.4328 4.127 35.1132 4.20633 34.8285 4.365C34.5438 4.519 34.3175 4.736 34.1495 5.016C33.9862 5.296 33.9045 5.618 33.9045 5.982V10H32.6165V5.828C32.6165 5.31933 32.4765 4.90867 32.1965 4.596C31.9212 4.28333 31.5105 4.127 30.9645 4.127C30.6145 4.127 30.2972 4.20633 30.0125 4.365C29.7278 4.519 29.5015 4.736 29.3335 5.016C29.1702 5.296 29.0885 5.618 29.0885 5.982V10H27.8005Z"
        fill="white" />
</svg>
    