<svg width="30" height="26" viewBox="0 0 30 26" fill="none" xmlns="http://www.w3.org/2000/svg">
<path fill-rule="evenodd" clip-rule="evenodd" d="M4.59995 0C2.44604 0 0.699951 1.74609 0.699951 3.9V22.1C0.699951 24.2539 2.44604 26 4.59995 26H22.8C24.9539 26 26.7 24.2539 26.7 22.1V20.5781C28.2147 20.0427 29.3 18.5981 29.3 16.9V14.3C29.3 12.6019 28.2147 11.1573 26.7 10.6219V9.1C26.7 6.94609 24.9539 5.2 22.8 5.2V3.9C22.8 1.74609 21.0539 0 18.9 0H4.59995ZM4.59995 2.6C3.88198 2.6 3.29995 3.18203 3.29995 3.9C3.29995 4.61797 3.88198 5.2 4.59995 5.2H20.2V3.9C20.2 3.18203 19.6179 2.6 18.9 2.6H4.59995ZM3.29995 7.57808V22.1C3.29995 22.818 3.88198 23.4 4.59995 23.4H22.8C23.5179 23.4 24.1 22.818 24.1 22.1V20.8H20.2C18.046 20.8 16.3 19.0539 16.3 16.9V14.3C16.3 12.1461 18.046 10.4 20.2 10.4H24.1V9.1C24.1 8.38203 23.5179 7.8 22.8 7.8H4.59995C4.14413 7.8 3.70656 7.7218 3.29995 7.57808ZM20.2 13C19.482 13 18.9 13.582 18.9 14.3V16.9C18.9 17.618 19.482 18.2 20.2 18.2H25.4C26.1179 18.2 26.7 17.618 26.7 16.9V14.3C26.7 13.582 26.1179 13 25.4 13H20.2Z" fill="#090723"/>
</svg>
