<svg width="18" height="16" viewBox="0 0 18 16" fill="none" xmlns="http://www.w3.org/2000/svg">
<path d="M14.8334 3.83333H14.0001V3C14.0001 2.33696 13.7367 1.70107 13.2678 1.23223C12.799 0.763392 12.1631 0.5 11.5001 0.5H3.16675C2.50371 0.5 1.86782 0.763392 1.39898 1.23223C0.93014 1.70107 0.666748 2.33696 0.666748 3V13C0.666748 13.663 0.93014 14.2989 1.39898 14.7678C1.86782 15.2366 2.50371 15.5 3.16675 15.5H14.8334C15.4965 15.5 16.1323 15.2366 16.6012 14.7678C17.07 14.2989 17.3334 13.663 17.3334 13V6.33333C17.3334 5.67029 17.07 5.03441 16.6012 4.56557C16.1323 4.09673 15.4965 3.83333 14.8334 3.83333ZM3.16675 2.16667H11.5001C11.7211 2.16667 11.9331 2.25446 12.0893 2.41074C12.2456 2.56702 12.3334 2.77899 12.3334 3V3.83333H3.16675C2.94573 3.83333 2.73377 3.74554 2.57749 3.58926C2.42121 3.43298 2.33341 3.22101 2.33341 3C2.33341 2.77899 2.42121 2.56702 2.57749 2.41074C2.73377 2.25446 2.94573 2.16667 3.16675 2.16667ZM15.6667 10.5H14.8334C14.6124 10.5 14.4004 10.4122 14.2442 10.2559C14.0879 10.0996 14.0001 9.88768 14.0001 9.66667C14.0001 9.44565 14.0879 9.23369 14.2442 9.07741C14.4004 8.92113 14.6124 8.83333 14.8334 8.83333H15.6667V10.5ZM15.6667 7.16667H14.8334C14.1704 7.16667 13.5345 7.43006 13.0656 7.8989C12.5968 8.36774 12.3334 9.00362 12.3334 9.66667C12.3334 10.3297 12.5968 10.9656 13.0656 11.4344C13.5345 11.9033 14.1704 12.1667 14.8334 12.1667H15.6667V13C15.6667 13.221 15.579 13.433 15.4227 13.5893C15.2664 13.7455 15.0544 13.8333 14.8334 13.8333H3.16675C2.94573 13.8333 2.73377 13.7455 2.57749 13.5893C2.42121 13.433 2.33341 13.221 2.33341 13V5.35833C2.60114 5.45251 2.88294 5.50042 3.16675 5.5H14.8334C15.0544 5.5 15.2664 5.5878 15.4227 5.74408C15.579 5.90036 15.6667 6.11232 15.6667 6.33333V7.16667Z" fill="#F3D523"/>
</svg>
